<?xml version="1.0" encoding="utf-8"?>
<!-- Generator: Adobe Illustrator 26.0.2, SVG Export Plug-In . SVG Version: 6.00 Build 0)  -->
<svg version="1.2" baseProfile="tiny" id="Layer_1" xmlns="http://www.w3.org/2000/svg" xmlns:xlink="http://www.w3.org/1999/xlink"
	 x="0px" y="0px" viewBox="0 0 1000 300" overflow="visible" xml:space="preserve">
<g>
	<rect x="4.93" y="74.45" fill="none" width="188.08" height="28.49"/>
	<path d="M17.73,92.32v-7.79H8.97v7.79H7.05V75.1h1.92v7.72h8.76V75.1h1.89v17.23H17.73z"/>
	<path d="M31.87,90.78l0.72-0.07l0.05,1.47c-1.89,0.27-3.51,0.4-4.85,0.4c-1.79,0-3.06-0.52-3.81-1.56
		c-0.75-1.04-1.12-2.65-1.12-4.84c0-4.36,1.73-6.55,5.2-6.55c1.68,0,2.93,0.47,3.76,1.41c0.83,0.94,1.24,2.41,1.24,4.42l-0.1,1.42
		h-8.22c0,1.38,0.25,2.4,0.75,3.06c0.5,0.66,1.36,1,2.6,1C29.33,90.93,30.59,90.88,31.87,90.78z M31.2,85.38
		c0-1.53-0.25-2.61-0.73-3.24c-0.49-0.63-1.29-0.95-2.39-0.95c-1.1,0-1.93,0.33-2.49,1c-0.56,0.66-0.84,1.73-0.86,3.19H31.2z"/>
	<path d="M34.58,79.88h1.87l3.11,10.83h0.82l3.14-10.83h1.87l-5.18,17.97h-1.87l1.62-5.53h-1.84L34.58,79.88z"/>
	<path d="M52.31,95.38l1.15-5.73h2.07l-1.67,5.73H52.31z"/>
	<path d="M66.15,92.32h-1.87V79.88h1.84v0.87c1.24-0.75,2.46-1.12,3.63-1.12c1.54,0,2.62,0.42,3.24,1.27
		c0.55-0.33,1.26-0.63,2.13-0.88s1.64-0.39,2.3-0.39c1.66,0,2.78,0.44,3.35,1.33c0.57,0.89,0.86,2.49,0.86,4.79v6.57h-1.87V85.8
		c0-1.73-0.17-2.91-0.5-3.55c-0.33-0.64-1.04-0.96-2.12-0.96c-0.55,0-1.11,0.08-1.69,0.24s-1.03,0.31-1.34,0.46l-0.47,0.22
		c0.22,0.55,0.32,1.76,0.32,3.63v6.47H72.1V85.9c0-1.79-0.16-3.01-0.49-3.65c-0.32-0.64-1.03-0.96-2.13-0.96
		c-0.53,0-1.07,0.08-1.63,0.24s-0.98,0.31-1.28,0.46l-0.42,0.22V92.32z"/>
	<path d="M83.77,79.88h1.87l3.11,10.83h0.82l3.14-10.83h1.87L89.4,97.85h-1.87l1.62-5.53h-1.84L83.77,79.88z"/>
	<path d="M104.31,92.32h-1.87V79.88h1.84v0.87c1.34-0.75,2.63-1.12,3.86-1.12c1.66,0,2.78,0.45,3.35,1.34
		c0.57,0.9,0.86,2.49,0.86,4.78v6.57h-1.84V85.8c0-1.73-0.17-2.91-0.51-3.55c-0.34-0.64-1.07-0.96-2.18-0.96
		c-0.53,0-1.09,0.08-1.68,0.24c-0.59,0.16-1.04,0.31-1.36,0.46l-0.47,0.22V92.32z"/>
	<path d="M124.6,83.63v6.37c0.05,0.61,0.53,0.98,1.44,1.1l-0.07,1.47c-1.31,0-2.3-0.33-2.96-1c-1.49,0.66-2.99,1-4.48,1
		c-1.15,0-2.02-0.32-2.61-0.97c-0.6-0.65-0.9-1.58-0.9-2.79c0-1.21,0.31-2.1,0.92-2.68c0.61-0.57,1.58-0.92,2.89-1.06l3.91-0.37
		v-1.07c0-0.85-0.18-1.45-0.55-1.82c-0.37-0.36-0.86-0.55-1.49-0.55c-1.33,0-2.71,0.08-4.13,0.25l-0.77,0.07l-0.07-1.42
		c1.83-0.36,3.44-0.55,4.85-0.55s2.44,0.32,3.07,0.97C124.28,81.24,124.6,82.26,124.6,83.63z M116.93,88.71
		c0,1.53,0.63,2.29,1.89,2.29c1.13,0,2.24-0.19,3.34-0.57l0.57-0.2v-4.11l-3.68,0.35c-0.75,0.07-1.29,0.28-1.62,0.65
		C117.1,87.48,116.93,88.02,116.93,88.71z"/>
	<path d="M130.15,92.32h-1.87V79.88h1.84v0.87c1.24-0.75,2.46-1.12,3.63-1.12c1.54,0,2.62,0.42,3.24,1.27
		c0.55-0.33,1.26-0.63,2.13-0.88s1.64-0.39,2.3-0.39c1.66,0,2.78,0.44,3.35,1.33c0.57,0.89,0.86,2.49,0.86,4.79v6.57h-1.87V85.8
		c0-1.73-0.17-2.91-0.5-3.55c-0.33-0.64-1.04-0.96-2.12-0.96c-0.55,0-1.11,0.08-1.69,0.24s-1.03,0.31-1.34,0.46l-0.47,0.22
		c0.22,0.55,0.32,1.76,0.32,3.63v6.47h-1.87V85.9c0-1.79-0.16-3.01-0.49-3.65c-0.32-0.64-1.03-0.96-2.13-0.96
		c-0.53,0-1.07,0.08-1.63,0.24s-0.98,0.31-1.28,0.46l-0.42,0.22V92.32z"/>
	<path d="M157.56,90.78l0.72-0.07l0.05,1.47c-1.89,0.27-3.51,0.4-4.85,0.4c-1.79,0-3.06-0.52-3.81-1.56
		c-0.75-1.04-1.12-2.65-1.12-4.84c0-4.36,1.73-6.55,5.2-6.55c1.68,0,2.93,0.47,3.76,1.41c0.83,0.94,1.24,2.41,1.24,4.42l-0.1,1.42
		h-8.22c0,1.38,0.25,2.4,0.75,3.06c0.5,0.66,1.36,1,2.6,1C155.03,90.93,156.28,90.88,157.56,90.78z M156.89,85.38
		c0-1.53-0.25-2.61-0.73-3.24c-0.49-0.63-1.29-0.95-2.39-0.95c-1.1,0-1.93,0.33-2.49,1c-0.56,0.66-0.84,1.73-0.86,3.19H156.89z"/>
	<path d="M167.15,77.06V74.9h1.87v2.17H167.15z M167.15,92.32V79.88h1.87v12.45H167.15z"/>
	<path d="M176.51,81.29c-1.81,0-2.71,0.63-2.71,1.89c0,0.58,0.21,0.99,0.62,1.23c0.41,0.24,1.36,0.49,2.84,0.75s2.52,0.62,3.14,1.08
		c0.61,0.46,0.92,1.34,0.92,2.61c0,1.28-0.41,2.22-1.23,2.81c-0.82,0.6-2.02,0.9-3.6,0.9c-1.03,0-2.24-0.12-3.63-0.35l-0.75-0.12
		l0.1-1.62c1.89,0.28,3.32,0.42,4.28,0.42c0.96,0,1.7-0.15,2.2-0.46c0.51-0.31,0.76-0.82,0.76-1.54c0-0.72-0.22-1.21-0.65-1.47
		c-0.43-0.26-1.38-0.5-2.84-0.73c-1.46-0.23-2.5-0.57-3.11-1.02c-0.61-0.45-0.92-1.28-0.92-2.49c0-1.21,0.43-2.11,1.28-2.69
		c0.85-0.58,1.92-0.87,3.2-0.87c1.01,0,2.28,0.12,3.81,0.35l0.7,0.12l-0.05,1.59C179.02,81.43,177.57,81.29,176.51,81.29z"/>
</g>
<g>
	<rect x="4.93" y="125.35" fill="none" width="317.03" height="46.55"/>
	<path d="M18.87,130.78c-4.22,0-6.32,1.48-6.32,4.43c0,1.53,0.5,2.61,1.49,3.26c1,0.65,3.19,1.44,6.6,2.39
		c3.4,0.95,5.8,2.07,7.19,3.39c1.39,1.31,2.09,3.38,2.09,6.2c0,3.58-1.02,6.27-3.06,8.04c-2.04,1.78-4.82,2.66-8.34,2.66
		c-2.82,0-5.94-0.33-9.36-1l-1.79-0.35l0.55-4.43c4.48,0.6,7.9,0.9,10.26,0.9c4.12,0,6.17-1.83,6.17-5.48
		c0-1.43-0.46-2.48-1.39-3.16c-0.93-0.68-3.02-1.43-6.27-2.24c-3.25-0.81-5.68-1.93-7.27-3.36c-1.59-1.43-2.39-3.68-2.39-6.77
		s1-5.42,3.01-7c2.01-1.58,4.79-2.36,8.34-2.36c2.56,0,5.58,0.3,9.06,0.9l1.74,0.3l-0.45,4.48
		C24.08,131.04,20.8,130.78,18.87,130.78z"/>
	<path d="M53.68,143.37v11.35c0.03,0.73,0.22,1.27,0.57,1.62s0.89,0.57,1.62,0.67l-0.15,4.13c-2.85,0-5.06-0.61-6.62-1.84
		c-2.66,1.23-5.33,1.84-8.02,1.84c-4.95,0-7.42-2.64-7.42-7.92c0-2.52,0.67-4.35,2.02-5.48s3.41-1.81,6.2-2.04l6.42-0.55v-1.79
		c0-1.33-0.29-2.26-0.87-2.79c-0.58-0.53-1.44-0.8-2.56-0.8c-2.12,0-4.78,0.13-7.97,0.4l-1.59,0.1l-0.2-3.83
		c3.62-0.86,6.95-1.29,9.98-1.29s5.23,0.66,6.57,1.97C53,138.44,53.68,140.52,53.68,143.37z M42.52,149.55
		c-2.29,0.2-3.44,1.44-3.44,3.73s1.01,3.44,3.04,3.44c1.66,0,3.42-0.27,5.28-0.8l0.9-0.3V149L42.52,149.55z"/>
	<path d="M60.55,159.66v-23.95h5.38v24c0,3.25-0.57,5.66-1.72,7.22c-1.15,1.56-3.44,3.22-6.9,4.98l-2.14-4.03
		c2.32-1.46,3.8-2.65,4.43-3.56C60.23,163.4,60.55,161.85,60.55,159.66z M60.55,131.47v-5.73h5.38v5.73H60.55z"/>
	<path d="M90.97,143.37v11.35c0.03,0.73,0.22,1.27,0.57,1.62s0.89,0.57,1.62,0.67l-0.15,4.13c-2.85,0-5.06-0.61-6.62-1.84
		c-2.66,1.23-5.33,1.84-8.02,1.84c-4.95,0-7.42-2.64-7.42-7.92c0-2.52,0.67-4.35,2.02-5.48s3.41-1.81,6.2-2.04l6.42-0.55v-1.79
		c0-1.33-0.29-2.26-0.87-2.79c-0.58-0.53-1.44-0.8-2.56-0.8c-2.12,0-4.78,0.13-7.97,0.4l-1.59,0.1l-0.2-3.83
		c3.62-0.86,6.95-1.29,9.98-1.29s5.23,0.66,6.57,1.97C90.3,138.44,90.97,140.52,90.97,143.37z M79.82,149.55
		c-2.29,0.2-3.44,1.44-3.44,3.73s1.01,3.44,3.04,3.44c1.66,0,3.42-0.27,5.28-0.8l0.9-0.3V149L79.82,149.55z"/>
	<path d="M118.1,125.35v35.25h-5.38v-1.29c-2.42,1.23-4.65,1.84-6.67,1.84c-3.25,0-5.63-0.98-7.15-2.94
		c-1.51-1.96-2.27-5.24-2.27-9.86c0-4.61,0.84-7.97,2.51-10.06c1.68-2.09,4.29-3.14,7.84-3.14c1.19,0,3.09,0.22,5.68,0.65v-10.46
		H118.1z M111.83,155.42l0.85-0.35v-14.74c-1.99-0.33-3.83-0.5-5.53-0.5c-3.35,0-5.03,2.79-5.03,8.36c0,3.05,0.39,5.17,1.17,6.35
		c0.78,1.18,2.02,1.77,3.71,1.77S110.3,156.02,111.83,155.42z"/>
	<path d="M141.8,160.6h-5.53V126.5h5.53v15.39l5.08-0.4l6.97-14.99h6.32l-8.41,17.13l8.76,16.98h-6.42l-7.22-14.24l-5.08,0.35V160.6
		z"/>
	<path d="M165.23,138.4c1.71-2.16,4.56-3.24,8.54-3.24c3.98,0,6.83,1.08,8.54,3.24c1.71,2.16,2.56,5.39,2.56,9.71
		c0,4.32-0.83,7.57-2.49,9.76c-1.66,2.19-4.53,3.29-8.61,3.29c-4.08,0-6.95-1.1-8.61-3.29c-1.66-2.19-2.49-5.44-2.49-9.76
		C162.67,143.79,163.52,140.55,165.23,138.4z M169.29,154.58c0.76,1.33,2.26,1.99,4.48,1.99c2.22,0,3.72-0.66,4.48-1.99
		c0.76-1.33,1.15-3.5,1.15-6.52c0-3.02-0.41-5.16-1.22-6.42c-0.81-1.26-2.28-1.89-4.41-1.89c-2.12,0-3.59,0.63-4.41,1.89
		c-0.81,1.26-1.22,3.4-1.22,6.42C168.14,151.08,168.52,153.25,169.29,154.58z"/>
	<path d="M190.55,160.6v-35.25h5.43v35.25H190.55z"/>
	<path d="M221.27,143.37v11.35c0.03,0.73,0.22,1.27,0.57,1.62s0.89,0.57,1.62,0.67l-0.15,4.13c-2.85,0-5.06-0.61-6.62-1.84
		c-2.66,1.23-5.33,1.84-8.02,1.84c-4.95,0-7.42-2.64-7.42-7.92c0-2.52,0.67-4.35,2.02-5.48s3.41-1.81,6.2-2.04l6.42-0.55v-1.79
		c0-1.33-0.29-2.26-0.87-2.79c-0.58-0.53-1.44-0.8-2.56-0.8c-2.12,0-4.78,0.13-7.97,0.4l-1.59,0.1l-0.2-3.83
		c3.62-0.86,6.95-1.29,9.98-1.29s5.23,0.66,6.57,1.97C220.6,138.44,221.27,140.52,221.27,143.37z M210.12,149.55
		c-2.29,0.2-3.44,1.44-3.44,3.73s1.01,3.44,3.04,3.44c1.66,0,3.42-0.27,5.28-0.8l0.9-0.3V149L210.12,149.55z"/>
	<path d="M233.52,160.6h-5.43v-35.25h5.43V137c2.46-1.23,4.73-1.84,6.82-1.84c3.32,0,5.58,0.94,6.8,2.81
		c1.21,1.88,1.82,4.97,1.82,9.29v13.34h-5.43v-13.19c0-2.69-0.28-4.6-0.85-5.73c-0.56-1.13-1.76-1.69-3.58-1.69
		c-1.59,0-3.19,0.27-4.78,0.8l-0.8,0.3V160.6z"/>
	<path d="M264.58,135.16c1.76,0,3.83,0.23,6.22,0.7l1.24,0.25l-0.2,4.28c-2.62-0.27-4.56-0.4-5.83-0.4c-2.52,0-4.22,0.56-5.08,1.69
		c-0.86,1.13-1.29,3.25-1.29,6.37c0,3.12,0.42,5.28,1.25,6.47c0.83,1.19,2.56,1.79,5.18,1.79l5.83-0.4l0.15,4.33
		c-3.35,0.6-5.88,0.9-7.57,0.9c-3.78,0-6.45-1.02-7.99-3.06c-1.54-2.04-2.31-5.38-2.31-10.03c0-4.65,0.81-7.96,2.44-9.93
		C258.24,136.15,260.9,135.16,264.58,135.16z"/>
	<path d="M282.71,160.6h-5.43v-35.25h5.43V137c2.46-1.23,4.73-1.84,6.82-1.84c3.32,0,5.58,0.94,6.8,2.81
		c1.21,1.88,1.82,4.97,1.82,9.29v13.34h-5.43v-13.19c0-2.69-0.28-4.6-0.85-5.73c-0.56-1.13-1.76-1.69-3.58-1.69
		c-1.59,0-3.19,0.27-4.78,0.8l-0.8,0.3V160.6z"/>
	<path d="M304.47,131.47v-5.73h5.43v5.73H304.47z M304.47,160.6v-24.9h5.43v24.9H304.47z"/>
</g>
<path fill="#F2F2F2" d="M231.72,232.48H11.48c-3.6,0-6.55-2.95-6.55-6.55V204.7c0-3.6,2.95-6.55,6.55-6.55h220.24
	c3.6,0,6.55,2.95,6.55,6.55v21.23C238.28,229.53,235.33,232.48,231.72,232.48z"/>
<g>
	<rect x="10.79" y="208.45" fill="none" width="220.19" height="17.02"/>
	<path d="M41.47,219.71c-1.09,0.22-2.02,0.33-2.79,0.33s-1.39-0.08-1.86-0.25c-0.47-0.16-0.85-0.39-1.15-0.69
		c-0.3-0.3-0.53-0.68-0.7-1.16c-0.32-0.87-0.48-2.04-0.48-3.53c0-2.39,0.38-3.97,1.14-4.74c0.62-0.64,1.57-0.97,2.85-0.97
		c0.88,0,1.87,0.11,2.98,0.33l-0.05,0.86c-1.1-0.2-1.98-0.3-2.65-0.3c-0.67,0-1.18,0.07-1.54,0.21c-0.36,0.14-0.66,0.33-0.89,0.57
		c-0.23,0.24-0.4,0.57-0.51,0.99c-0.21,0.72-0.32,1.62-0.32,2.69s0.04,1.88,0.11,2.42c0.07,0.53,0.22,1.02,0.43,1.45
		c0.21,0.43,0.52,0.74,0.93,0.93c0.41,0.19,0.98,0.29,1.71,0.29c0.73,0,1.64-0.1,2.72-0.3L41.47,219.71z"/>
	<path d="M42.82,215.91c0-1.49,0.25-2.54,0.75-3.17s1.36-0.94,2.57-0.94s2.06,0.31,2.57,0.94s0.75,1.68,0.75,3.17
		s-0.23,2.55-0.69,3.18s-1.33,0.95-2.62,0.95c-1.29,0-2.17-0.32-2.63-0.95C43.05,218.46,42.82,217.4,42.82,215.91z M43.8,215.89
		c0,1.25,0.15,2.12,0.44,2.6c0.29,0.48,0.92,0.72,1.9,0.72s1.61-0.24,1.91-0.73c0.3-0.49,0.44-1.35,0.44-2.59s-0.17-2.09-0.5-2.55
		c-0.33-0.46-0.95-0.69-1.85-0.69c-0.9,0-1.51,0.23-1.85,0.68C43.97,213.78,43.8,214.64,43.8,215.89z"/>
	<path d="M52.44,219.89H51.5v-7.92h0.94v0.59c0.8-0.5,1.66-0.75,2.57-0.75c0.91,0,1.55,0.28,1.93,0.84
		c0.38-0.23,0.84-0.43,1.39-0.59s1.03-0.25,1.47-0.25c1.06,0,1.76,0.28,2.12,0.83c0.35,0.55,0.53,1.58,0.53,3.08v4.17H61.5v-4.12
		c0-1.21-0.11-2.04-0.34-2.46c-0.23-0.43-0.72-0.64-1.48-0.64c-0.38,0-0.77,0.05-1.17,0.17c-0.4,0.11-0.71,0.22-0.92,0.34
		l-0.32,0.16c0.16,0.4,0.24,1.21,0.24,2.44v4.12h-0.95v-4.09c0-1.24-0.11-2.07-0.34-2.5c-0.23-0.43-0.72-0.64-1.47-0.64
		c-0.37,0-0.75,0.05-1.13,0.17c-0.39,0.11-0.68,0.22-0.88,0.34l-0.3,0.16V219.89z"/>
	<path d="M64.73,223.45v-11.49h0.94v0.6c0.82-0.51,1.69-0.76,2.61-0.76s1.59,0.32,2.04,0.97c0.45,0.64,0.67,1.69,0.67,3.14
		s-0.26,2.5-0.79,3.15c-0.53,0.65-1.4,0.97-2.63,0.97c-0.65,0-1.29-0.07-1.9-0.21v3.61H64.73z M68.07,212.67
		c-0.35,0-0.72,0.06-1.12,0.17c-0.4,0.12-0.71,0.24-0.94,0.36l-0.35,0.17v5.64c0.72,0.13,1.34,0.19,1.87,0.19
		c0.91,0,1.55-0.26,1.92-0.77c0.37-0.51,0.55-1.36,0.55-2.54s-0.16-2.01-0.48-2.5S68.71,212.67,68.07,212.67z"/>
	<path d="M78.02,211.97h0.93v7.92h-0.93v-0.59c-0.81,0.5-1.63,0.74-2.44,0.74c-1.08,0-1.79-0.27-2.13-0.82
		c-0.34-0.55-0.52-1.59-0.52-3.12v-4.13h0.93v4.12c0,1.22,0.11,2.05,0.34,2.47c0.23,0.42,0.72,0.63,1.48,0.63
		c0.37,0,0.75-0.06,1.14-0.17c0.39-0.11,0.69-0.22,0.89-0.34l0.3-0.16V211.97z"/>
	<path d="M85.34,212.81h-2.65v3.91c0,1.03,0.07,1.7,0.22,2.01c0.15,0.32,0.5,0.47,1.05,0.47l1.46-0.11l0.06,0.81
		c-0.7,0.11-1.23,0.16-1.6,0.16c-0.8,0-1.36-0.2-1.67-0.59c-0.31-0.4-0.47-1.15-0.47-2.27v-4.39h-1.17v-0.84h1.17v-2.49h0.95v2.49
		h2.65V212.81z"/>
	<path d="M92.07,219.1l0.48-0.05l0.03,0.78c-1.19,0.15-2.2,0.22-3.03,0.22c-1.14-0.01-1.94-0.35-2.39-1.01
		c-0.45-0.67-0.68-1.69-0.68-3.07c0-2.77,1.09-4.15,3.26-4.15c1.05,0,1.83,0.3,2.34,0.9s0.78,1.55,0.78,2.86l-0.03,0.76h-5.39
		c0,0.97,0.17,1.69,0.5,2.16c0.33,0.47,0.9,0.71,1.71,0.71S91.27,219.16,92.07,219.1z M87.45,215.53h4.47
		c0-1.05-0.17-1.79-0.51-2.23c-0.34-0.44-0.89-0.67-1.65-0.67c-0.76,0-1.33,0.23-1.72,0.69C87.64,213.78,87.45,214.52,87.45,215.53z
		"/>
	<path d="M94.81,219.89v-7.92h0.94v1.14c0.39-0.27,0.87-0.54,1.43-0.79c0.56-0.25,1.08-0.42,1.56-0.51v0.95
		c-0.45,0.09-0.93,0.24-1.43,0.44c-0.5,0.2-0.88,0.37-1.16,0.51l-0.41,0.24v5.94H94.81z"/>
	<path d="M106.84,209.58c-1.7,0-2.55,0.65-2.55,1.95c0,0.76,0.19,1.27,0.58,1.54c0.39,0.26,1.14,0.51,2.27,0.73
		c1.12,0.22,1.93,0.53,2.41,0.92s0.72,1.05,0.72,1.96c0,1.18-0.29,2.04-0.88,2.56c-0.59,0.52-1.44,0.78-2.57,0.78
		c-0.82,0-1.78-0.07-2.87-0.22l-0.57-0.08l0.11-0.84c1.45,0.18,2.57,0.27,3.36,0.27c0.79,0,1.39-0.19,1.81-0.58
		c0.41-0.38,0.62-0.95,0.62-1.69c0-0.75-0.18-1.25-0.55-1.52s-0.95-0.48-1.74-0.63c-0.8-0.15-1.38-0.28-1.75-0.4
		s-0.72-0.3-1.04-0.52c-0.32-0.23-0.55-0.52-0.69-0.87c-0.14-0.35-0.21-0.8-0.21-1.34c0-1.92,1.16-2.88,3.49-2.88
		c0.7,0,1.6,0.07,2.72,0.22l0.52,0.08l-0.08,0.84C108.48,209.67,107.45,209.58,106.84,209.58z"/>
	<path d="M115.19,211.81c0.48,0,1.04,0.05,1.7,0.16l0.36,0.05l-0.05,0.81c-0.83-0.11-1.45-0.16-1.85-0.16
		c-0.94,0-1.58,0.23-1.93,0.69c-0.35,0.46-0.52,1.3-0.52,2.54s0.16,2.09,0.48,2.57c0.32,0.49,0.98,0.73,1.98,0.73l1.89-0.14
		l0.03,0.81c-0.94,0.13-1.64,0.19-2.09,0.19c-1.26,0-2.12-0.31-2.57-0.93s-0.69-1.7-0.69-3.22s0.25-2.58,0.75-3.18
		C113.16,212.11,114,211.81,115.19,211.81z"/>
	<path d="M119.1,209.99v-1.19h0.94v1.19H119.1z M119.1,219.89v-7.92h0.94v7.92H119.1z"/>
	<path d="M127.65,219.1l0.48-0.05l0.03,0.78c-1.19,0.15-2.2,0.22-3.03,0.22c-1.14-0.01-1.94-0.35-2.39-1.01
		c-0.45-0.67-0.68-1.69-0.68-3.07c0-2.77,1.09-4.15,3.26-4.15c1.05,0,1.83,0.3,2.34,0.9s0.78,1.55,0.78,2.86l-0.03,0.76h-5.39
		c0,0.97,0.17,1.69,0.5,2.16c0.33,0.47,0.9,0.71,1.71,0.71S126.85,219.16,127.65,219.1z M123.03,215.53h4.47
		c0-1.05-0.17-1.79-0.51-2.23c-0.34-0.44-0.89-0.67-1.65-0.67c-0.76,0-1.33,0.23-1.72,0.69
		C123.22,213.78,123.03,214.52,123.03,215.53z"/>
	<path d="M131.33,219.89h-0.94v-7.92h0.94v0.59c0.89-0.5,1.75-0.75,2.58-0.75c1.06,0,1.76,0.28,2.12,0.84
		c0.35,0.56,0.53,1.58,0.53,3.07v4.17h-0.95v-4.12c0-1.21-0.12-2.04-0.35-2.46s-0.73-0.64-1.49-0.64c-0.37,0-0.76,0.05-1.16,0.17
		c-0.41,0.11-0.72,0.22-0.94,0.34l-0.33,0.16V219.89z"/>
	<path d="M141.78,211.81c0.48,0,1.04,0.05,1.7,0.16l0.36,0.05l-0.05,0.81c-0.83-0.11-1.45-0.16-1.85-0.16
		c-0.94,0-1.58,0.23-1.93,0.69c-0.35,0.46-0.52,1.3-0.52,2.54s0.16,2.09,0.48,2.57c0.32,0.49,0.98,0.73,1.98,0.73l1.89-0.14
		l0.03,0.81c-0.94,0.13-1.64,0.19-2.09,0.19c-1.26,0-2.12-0.31-2.57-0.93s-0.69-1.7-0.69-3.22s0.25-2.58,0.75-3.18
		C139.76,212.11,140.6,211.81,141.78,211.81z"/>
	<path d="M150.83,219.1l0.48-0.05l0.03,0.78c-1.19,0.15-2.2,0.22-3.03,0.22c-1.14-0.01-1.94-0.35-2.39-1.01
		c-0.45-0.67-0.68-1.69-0.68-3.07c0-2.77,1.09-4.15,3.26-4.15c1.05,0,1.83,0.3,2.34,0.9s0.78,1.55,0.78,2.86l-0.03,0.76h-5.39
		c0,0.97,0.17,1.69,0.5,2.16c0.33,0.47,0.9,0.71,1.71,0.71S150.03,219.16,150.83,219.1z M146.2,215.53h4.47
		c0-1.05-0.17-1.79-0.51-2.23c-0.34-0.44-0.89-0.67-1.65-0.67c-0.76,0-1.33,0.23-1.72,0.69C146.4,213.78,146.2,214.52,146.2,215.53z
		"/>
	<path d="M160.22,209.58c-1.7,0-2.55,0.65-2.55,1.95c0,0.76,0.19,1.27,0.58,1.54c0.39,0.26,1.14,0.51,2.27,0.73
		c1.12,0.22,1.93,0.53,2.41,0.92s0.72,1.05,0.72,1.96c0,1.18-0.29,2.04-0.88,2.56c-0.59,0.52-1.44,0.78-2.57,0.78
		c-0.82,0-1.78-0.07-2.87-0.22l-0.57-0.08l0.11-0.84c1.45,0.18,2.57,0.27,3.36,0.27c0.79,0,1.39-0.19,1.81-0.58
		c0.41-0.38,0.62-0.95,0.62-1.69c0-0.75-0.18-1.25-0.55-1.52s-0.95-0.48-1.74-0.63c-0.8-0.15-1.38-0.28-1.75-0.4
		s-0.72-0.3-1.04-0.52c-0.32-0.23-0.55-0.52-0.69-0.87c-0.14-0.35-0.21-0.8-0.21-1.34c0-1.92,1.16-2.88,3.49-2.88
		c0.7,0,1.6,0.07,2.72,0.22l0.52,0.08l-0.08,0.84C161.87,209.67,160.84,209.58,160.22,209.58z"/>
	<path d="M169.48,212.81h-2.65v3.91c0,1.03,0.07,1.7,0.22,2.01c0.15,0.32,0.5,0.47,1.05,0.47l1.46-0.11l0.06,0.81
		c-0.7,0.11-1.23,0.16-1.6,0.16c-0.8,0-1.36-0.2-1.67-0.59c-0.31-0.4-0.47-1.15-0.47-2.27v-4.39h-1.17v-0.84h1.17v-2.49h0.95v2.49
		h2.65V212.81z"/>
	<path d="M175.97,211.97h0.93v7.92h-0.93v-0.59c-0.81,0.5-1.63,0.74-2.44,0.74c-1.08,0-1.79-0.27-2.13-0.82
		c-0.34-0.55-0.52-1.59-0.52-3.12v-4.13h0.93v4.12c0,1.22,0.11,2.05,0.34,2.47c0.23,0.42,0.72,0.63,1.48,0.63
		c0.37,0,0.75-0.06,1.14-0.17c0.39-0.11,0.69-0.22,0.89-0.34l0.3-0.16V211.97z"/>
	<path d="M185.21,208.45v11.44h-0.95v-0.59c-0.83,0.5-1.68,0.74-2.53,0.74c-0.39,0-0.73-0.04-1.01-0.13
		c-0.29-0.09-0.58-0.27-0.87-0.53c-0.6-0.54-0.9-1.59-0.9-3.16c0-1.57,0.25-2.7,0.76-3.38s1.36-1.03,2.57-1.03
		c0.46,0,1.13,0.07,2,0.21v-3.56H185.21z M181.13,219.08c0.2,0.07,0.45,0.11,0.76,0.11c0.31,0,0.67-0.06,1.08-0.17
		c0.41-0.12,0.73-0.23,0.96-0.33l0.33-0.17v-5.67c-0.85-0.13-1.5-0.19-1.96-0.19c-0.9,0-1.52,0.28-1.86,0.82
		c-0.34,0.55-0.52,1.4-0.52,2.55c0,1.35,0.21,2.23,0.62,2.65C180.73,218.87,180.93,219.01,181.13,219.08z"/>
	<path d="M192.81,219.1l0.48-0.05l0.03,0.78c-1.19,0.15-2.2,0.22-3.03,0.22c-1.14-0.01-1.94-0.35-2.39-1.01
		c-0.45-0.67-0.68-1.69-0.68-3.07c0-2.77,1.09-4.15,3.26-4.15c1.05,0,1.83,0.3,2.34,0.9s0.78,1.55,0.78,2.86l-0.03,0.76h-5.39
		c0,0.97,0.17,1.69,0.5,2.16c0.33,0.47,0.9,0.71,1.71,0.71S192.01,219.16,192.81,219.1z M188.19,215.53h4.47
		c0-1.05-0.17-1.79-0.51-2.23c-0.34-0.44-0.89-0.67-1.65-0.67c-0.76,0-1.33,0.23-1.72,0.69
		C188.38,213.78,188.19,214.52,188.19,215.53z"/>
	<path d="M196.49,219.89h-0.94v-7.92h0.94v0.59c0.89-0.5,1.75-0.75,2.58-0.75c1.06,0,1.76,0.28,2.12,0.84
		c0.35,0.56,0.53,1.58,0.53,3.07v4.17h-0.95v-4.12c0-1.21-0.12-2.04-0.35-2.46s-0.73-0.64-1.49-0.64c-0.37,0-0.76,0.05-1.16,0.17
		c-0.41,0.11-0.72,0.22-0.94,0.34l-0.33,0.16V219.89z"/>
	<path d="M207.94,212.81h-2.65v3.91c0,1.03,0.07,1.7,0.22,2.01c0.15,0.32,0.5,0.47,1.05,0.47l1.46-0.11l0.06,0.81
		c-0.7,0.11-1.23,0.16-1.6,0.16c-0.8,0-1.36-0.2-1.67-0.59c-0.31-0.4-0.47-1.15-0.47-2.27v-4.39h-1.17v-0.84h1.17v-2.49h0.95v2.49
		h2.65V212.81z"/>
</g>
<path fill="#005CE9" d="M481.51,232.48H261.27c-3.6,0-6.55-2.95-6.55-6.55V204.7c0-3.6,2.95-6.55,6.55-6.55h220.24
	c3.6,0,6.55,2.95,6.55,6.55v21.23C488.06,229.53,485.12,232.48,481.51,232.48z"/>
<g>
	<rect x="303.73" y="208.71" fill="none" width="133.88" height="13.2"/>
	<path fill="#F2F2F2" d="M308.1,210.03c-1.58,0-2.38,0.6-2.38,1.79c0,0.67,0.18,1.12,0.55,1.37c0.36,0.25,1.1,0.5,2.22,0.75
		c1.11,0.25,1.9,0.57,2.37,0.97c0.46,0.4,0.7,1.05,0.7,1.96c0,2.25-1.17,3.37-3.5,3.37c-0.77,0-1.74-0.09-2.9-0.27l-0.57-0.08
		l0.13-1.01c1.44,0.19,2.53,0.29,3.28,0.29c1.56,0,2.34-0.73,2.34-2.2c0-0.59-0.17-1.02-0.52-1.28s-0.98-0.48-1.92-0.66
		c-1.24-0.26-2.11-0.6-2.63-1.02c-0.52-0.42-0.78-1.12-0.78-2.1c0-1.96,1.18-2.95,3.53-2.95c0.77,0,1.69,0.08,2.77,0.24l0.54,0.08
		l-0.11,1.03C309.76,210.12,308.72,210.03,308.1,210.03z"/>
	<path fill="#F2F2F2" d="M313.11,216.11c0-1.45,0.26-2.49,0.78-3.14c0.52-0.64,1.39-0.97,2.62-0.97c1.23,0,2.1,0.32,2.61,0.97
		c0.51,0.64,0.77,1.69,0.77,3.14c0,1.45-0.24,2.5-0.73,3.15c-0.49,0.66-1.37,0.98-2.66,0.98c-1.29,0-2.18-0.33-2.66-0.98
		C313.35,218.61,313.11,217.56,313.11,216.11z M314.33,216.09c0,1.16,0.14,1.97,0.42,2.43s0.87,0.7,1.76,0.7
		c0.89,0,1.48-0.23,1.75-0.69c0.27-0.46,0.41-1.27,0.41-2.43s-0.15-1.96-0.46-2.4c-0.31-0.44-0.87-0.66-1.7-0.66
		c-0.83,0-1.4,0.22-1.71,0.66C314.48,214.14,314.33,214.93,314.33,216.09z"/>
	<path fill="#F2F2F2" d="M323.34,213.2v6.89h-1.19v-6.89h-1v-1.03h1v-0.71c0-1.12,0.16-1.88,0.48-2.29
		c0.32-0.41,0.87-0.61,1.66-0.61l1.6,0.11l-0.02,0.98c-0.59-0.02-1.08-0.03-1.47-0.03c-0.39,0-0.66,0.13-0.82,0.38
		c-0.16,0.25-0.25,0.75-0.25,1.47v0.7h2.3v1.03H323.34z"/>
	<path fill="#F2F2F2" d="M331.17,213.2h-2.52v3.79c0,0.91,0.07,1.51,0.2,1.79c0.13,0.29,0.45,0.43,0.94,0.43l1.41-0.1l0.08,0.98
		c-0.71,0.12-1.25,0.17-1.62,0.17c-0.82,0-1.39-0.2-1.71-0.6s-0.48-1.17-0.48-2.3v-4.17h-1.12v-1.03h1.12v-2.42h1.17v2.42h2.52
		V213.2z"/>
	<path fill="#F2F2F2" d="M331.98,212.17h1.19l1.6,6.89h0.25l1.89-6.73h1.24l1.89,6.73h0.27l1.58-6.89h1.19l-1.89,7.92h-1.98
		l-1.68-6.19l-1.68,6.19h-1.98L331.98,212.17z"/>
	<path fill="#F2F2F2" d="M350.21,214.56v4.06c0.03,0.39,0.34,0.62,0.92,0.7l-0.05,0.93c-0.83,0-1.46-0.21-1.89-0.63
		c-0.95,0.42-1.9,0.63-2.85,0.63c-0.73,0-1.28-0.21-1.66-0.62c-0.38-0.41-0.57-1-0.57-1.77c0-0.77,0.2-1.34,0.59-1.7
		s1-0.59,1.84-0.67l2.49-0.24v-0.68c0-0.54-0.12-0.92-0.35-1.16s-0.55-0.35-0.95-0.35c-0.84,0-1.72,0.05-2.63,0.16l-0.49,0.05
		l-0.05-0.9c1.16-0.23,2.19-0.35,3.09-0.35c0.9,0,1.55,0.21,1.96,0.62C350.01,213.04,350.21,213.68,350.21,214.56z M345.33,217.79
		c0,0.97,0.4,1.46,1.2,1.46c0.72,0,1.43-0.12,2.12-0.36l0.36-0.13v-2.61l-2.34,0.22c-0.48,0.04-0.82,0.18-1.03,0.41
		C345.44,217.01,345.33,217.35,345.33,217.79z"/>
	<path fill="#F2F2F2" d="M352.56,220.09v-7.92h1.17v1.08c0.92-0.63,1.89-1.05,2.9-1.25v1.2c-0.44,0.08-0.91,0.22-1.39,0.4
		s-0.85,0.34-1.1,0.47l-0.4,0.21v5.81H352.56z"/>
	<path fill="#F2F2F2" d="M363.27,219.11l0.46-0.05l0.03,0.93c-1.2,0.17-2.23,0.25-3.09,0.25c-1.14,0-1.95-0.33-2.42-0.99
		c-0.48-0.66-0.71-1.69-0.71-3.08c0-2.78,1.1-4.17,3.31-4.17c1.07,0,1.86,0.3,2.39,0.9c0.53,0.6,0.79,1.53,0.79,2.81l-0.06,0.9
		h-5.23c0,0.88,0.16,1.53,0.48,1.95c0.32,0.42,0.87,0.63,1.66,0.63C361.65,219.2,362.45,219.17,363.27,219.11z M362.84,215.67
		c0-0.97-0.16-1.66-0.47-2.06s-0.82-0.6-1.52-0.6c-0.7,0-1.23,0.21-1.58,0.63c-0.35,0.42-0.54,1.1-0.55,2.03H362.84z"/>
	<path fill="#F2F2F2" d="M373.48,220.09h-3.91v-10.96h3.91c1.78,0,2.97,0.71,3.55,2.12c0.34,0.81,0.51,1.88,0.51,3.2
		c0,2.76-0.69,4.49-2.06,5.21C374.93,219.95,374.27,220.09,373.48,220.09z M376.29,214.45c0-2.1-0.47-3.41-1.41-3.93
		c-0.38-0.21-0.85-0.32-1.39-0.32h-2.69v8.81h2.69C375.35,219.01,376.29,217.49,376.29,214.45z"/>
	<path fill="#F2F2F2" d="M384.97,219.11l0.46-0.05l0.03,0.93c-1.2,0.17-2.23,0.25-3.09,0.25c-1.14,0-1.95-0.33-2.42-0.99
		c-0.48-0.66-0.71-1.69-0.71-3.08c0-2.78,1.1-4.17,3.31-4.17c1.07,0,1.86,0.3,2.39,0.9c0.53,0.6,0.79,1.53,0.79,2.81l-0.06,0.9
		h-5.23c0,0.88,0.16,1.53,0.48,1.95c0.32,0.42,0.87,0.63,1.66,0.63C383.36,219.2,384.16,219.17,384.97,219.11z M384.54,215.67
		c0-0.97-0.16-1.66-0.47-2.06s-0.82-0.6-1.52-0.6c-0.7,0-1.23,0.21-1.58,0.63c-0.35,0.42-0.54,1.1-0.55,2.03H384.54z"/>
	<path fill="#F2F2F2" d="M386.71,212.17h1.27l1.85,6.89h0.59l1.92-6.89h1.22l-2.23,7.92h-2.38L386.71,212.17z"/>
	<path fill="#F2F2F2" d="M400.32,219.11l0.46-0.05l0.03,0.93c-1.2,0.17-2.23,0.25-3.09,0.25c-1.14,0-1.95-0.33-2.42-0.99
		c-0.48-0.66-0.71-1.69-0.71-3.08c0-2.78,1.1-4.17,3.31-4.17c1.07,0,1.86,0.3,2.39,0.9c0.53,0.6,0.79,1.53,0.79,2.81l-0.06,0.9
		h-5.23c0,0.88,0.16,1.53,0.48,1.95c0.32,0.42,0.87,0.63,1.66,0.63C398.71,219.2,399.51,219.17,400.32,219.11z M399.89,215.67
		c0-0.97-0.16-1.66-0.47-2.06s-0.82-0.6-1.52-0.6c-0.7,0-1.23,0.21-1.58,0.63c-0.35,0.42-0.54,1.1-0.55,2.03H399.89z"/>
	<path fill="#F2F2F2" d="M403.03,220.09v-11.38h1.19v11.38H403.03z"/>
	<path fill="#F2F2F2" d="M406.25,216.11c0-1.45,0.26-2.49,0.78-3.14c0.52-0.64,1.39-0.97,2.62-0.97c1.23,0,2.1,0.32,2.61,0.97
		c0.51,0.64,0.77,1.69,0.77,3.14c0,1.45-0.24,2.5-0.73,3.15c-0.49,0.66-1.37,0.98-2.66,0.98c-1.29,0-2.18-0.33-2.66-0.98
		C406.49,218.61,406.25,217.56,406.25,216.11z M407.47,216.09c0,1.16,0.14,1.97,0.42,2.43s0.87,0.7,1.76,0.7
		c0.89,0,1.48-0.23,1.75-0.69c0.27-0.46,0.41-1.27,0.41-2.43s-0.15-1.96-0.46-2.4c-0.31-0.44-0.87-0.66-1.7-0.66
		c-0.83,0-1.4,0.22-1.71,0.66C407.62,214.14,407.47,214.93,407.47,216.09z"/>
	<path fill="#F2F2F2" d="M414.96,223.61v-11.44h1.17v0.57c0.8-0.49,1.59-0.73,2.38-0.73c1,0,1.73,0.32,2.19,0.96
		s0.68,1.69,0.68,3.16c0,1.47-0.27,2.52-0.8,3.16c-0.53,0.64-1.42,0.96-2.65,0.96c-0.64,0-1.24-0.06-1.77-0.17v3.53H414.96z
		 M418.33,213.07c-0.32,0-0.66,0.05-1.02,0.16s-0.65,0.21-0.86,0.32l-0.3,0.16v5.34c0.75,0.12,1.32,0.17,1.71,0.17
		c0.86,0,1.45-0.24,1.8-0.73c0.34-0.49,0.51-1.28,0.51-2.38s-0.16-1.88-0.47-2.34S418.94,213.07,418.33,213.07z"/>
	<path fill="#F2F2F2" d="M428.69,219.11l0.46-0.05l0.03,0.93c-1.2,0.17-2.23,0.25-3.09,0.25c-1.14,0-1.95-0.33-2.42-0.99
		c-0.48-0.66-0.71-1.69-0.71-3.08c0-2.78,1.1-4.17,3.31-4.17c1.07,0,1.86,0.3,2.39,0.9c0.53,0.6,0.79,1.53,0.79,2.81l-0.06,0.9
		h-5.23c0,0.88,0.16,1.53,0.48,1.95c0.32,0.42,0.87,0.63,1.66,0.63C427.08,219.2,427.88,219.17,428.69,219.11z M428.27,215.67
		c0-0.97-0.16-1.66-0.47-2.06s-0.82-0.6-1.52-0.6c-0.7,0-1.23,0.21-1.58,0.63c-0.35,0.42-0.54,1.1-0.55,2.03H428.27z"/>
	<path fill="#F2F2F2" d="M431.31,220.09v-7.92h1.17v1.08c0.92-0.63,1.89-1.05,2.9-1.25v1.2c-0.44,0.08-0.91,0.22-1.39,0.4
		s-0.85,0.34-1.1,0.47l-0.4,0.21v5.81H431.31z"/>
</g>
<path fill="#E6E6E6" d="M806.36,110.59c-0.07,0-0.14,0.07-0.21,0.07c-3.78,0-6.85-3.07-6.85-6.85c0-0.59,0.08-1.17,0.22-1.78
	c-1.65-1.3-2.71-3.37-2.71-5.69c0-1.95,0.75-3.73,1.98-5.13c-0.07-0.31-0.11-0.7-0.11-1.1c0-2.3,1.25-4.32,3.11-5.39
	c0-0.07,0-0.14,0-0.21c0-2.61,1.61-4.85,3.9-5.77c0.64-2.76,3.11-4.81,6.06-4.81c2.04,0,3.84,0.98,4.98,2.49
	c1.14-1.51,2.94-2.49,4.98-2.49c2.95,0,5.42,2.05,6.06,4.81c2.29,0.92,3.9,3.16,3.9,5.77c0,0.07-0.07,0.14-0.07,0.21
	c1.93,1.07,3.18,3.09,3.18,5.39c0,0.4-0.04,0.79-0.11,1.1c1.23,1.39,1.98,3.17,1.98,5.13c0,2.32-1.06,4.39-2.71,5.69
	c0.14,0.61,0.22,1.19,0.22,1.78c0,3.78-3.07,6.85-6.85,6.85c-0.07,0-0.14-0.07-0.21-0.07c-1.07,1.93-3.09,3.18-5.39,3.18
	c-2.04,0-3.84-0.98-4.98-2.49c-1.14,1.51-2.94,2.49-4.98,2.49C809.44,113.77,807.43,112.52,806.36,110.59z M811.75,76.43
	c-1.94,0-3.54,1.48-3.72,3.38l-0.08,0.88l-0.86,0.22c-1.62,0.41-2.82,1.88-2.82,3.62c0,0.24,0.02,0.48,0.07,0.72l0.2,1.02
	l-0.98,0.37c-1.41,0.54-2.47,1.91-2.47,3.49c0,0.4,0.14,0.8,0.25,1.1l0.26,0.78l-0.62,0.61c-1.04,0.92-1.76,2.26-1.76,3.74
	c0,1.78,1,3.35,2.42,4.22l0.9,0.57l-0.41,0.98c-0.22,0.51-0.41,1.09-0.41,1.7c0,2.4,2.02,4.36,4.36,4.36c0.33,0,0.58-0.02,0.81-0.06
	l1.01-0.24l0.37,1.02c0.54,1.41,1.9,2.4,3.42,2.4c2.13,0,3.73-1.67,3.73-3.73v-9.96h-3.73c-0.5,0-0.98,0.38-1.13,0.9
	c1.07,0.49,1.75,1.57,1.75,2.83c0,1.72-1.32,3.11-3.11,3.11c-1.65,0-3.11-1.39-3.11-3.11c0-1.28,0.78-2.39,1.95-2.86
	c0.19-1.95,1.78-3.36,3.65-3.36h3.73v-8.71h-2.05c-0.48,1.1-1.58,1.87-2.92,1.87c-1.65,0-3.11-1.39-3.11-3.11s1.46-3.11,3.11-3.11
	c1.35,0,2.44,0.77,2.92,1.87h2.05v-3.73c0-2.06-1.6-3.73-3.73-3.73H811.75z M817.97,101.33h4.61c0.48-1.1,1.58-1.87,2.85-1.87
	c1.72,0,3.11,1.39,3.11,3.11c0,1.72-1.39,3.11-3.11,3.11c-1.28,0-2.37-0.77-2.85-1.87h-4.61v3.73c0,2.06,1.67,3.73,3.73,3.73
	c1.59,0,2.95-1,3.49-2.4l0.37-1.02l1.01,0.24c0.23,0.04,0.48,0.06,0.74,0.06c2.4,0,4.36-1.95,4.36-4.36c0-0.61-0.12-1.18-0.34-1.7
	l-0.42-0.98l0.9-0.57c1.35-0.88,2.35-2.44,2.35-4.29c0-1.42-0.65-2.75-1.69-3.67L831.84,92l0.26-0.78c0.12-0.3,0.19-0.69,0.19-1.17
	c0-1.52-1-2.89-2.4-3.42l-0.97-0.37l0.19-1.02c0.05-0.23,0.07-0.47,0.07-0.79c0-1.67-1.2-3.14-2.82-3.55l-0.86-0.22l-0.08-0.88
	c-0.18-1.9-1.84-3.45-3.72-3.45c-2.06,0-3.73,1.74-3.73,3.73v3.73h3.73c2.06,0,3.73,1.74,3.73,3.73v0.95
	c1.1,0.48,1.87,1.58,1.87,2.78c0,1.79-1.39,3.11-3.11,3.11s-3.11-1.32-3.11-3.11c0-1.21,0.77-2.3,1.87-2.78v-0.95
	c0-0.61-0.56-1.24-1.24-1.24h-3.73V101.33z M810.5,86.39c0.68,0,1.24-0.56,1.24-1.24s-0.56-1.24-1.24-1.24s-1.24,0.56-1.24,1.24
	S809.82,86.39,810.5,86.39z M809.26,102.57c0.68,0,1.24-0.56,1.24-1.24s-0.56-1.24-1.24-1.24s-1.24,0.56-1.24,1.24
	S808.57,102.57,809.26,102.57z M825.44,91.37c0-0.68-0.56-1.24-1.24-1.24s-1.24,0.56-1.24,1.24s0.56,1.24,1.24,1.24
	S825.44,92.05,825.44,91.37z M825.44,103.82c0.68,0,1.24-0.56,1.24-1.24c0-0.68-0.56-1.24-1.24-1.24s-1.24,0.56-1.24,1.24
	C824.19,103.26,824.75,103.82,825.44,103.82z"/>
<path fill="#E6E6E6" d="M897.82,24.34l-9.86,31.77c-0.33,0.87-1.19,1.35-2.05,1.08c-0.87-0.33-1.36-1.19-1.08-2.05l9.86-31.77
	c0.27-0.87,1.19-1.35,2.05-1.08C897.61,22.55,898.1,23.47,897.82,24.34L897.82,24.34z M903.95,30.32l8.77,8.22
	c0.34,0.31,0.52,0.75,0.52,1.14c0,0.51-0.18,0.89-0.52,1.26l-8.77,8.22c-0.66,0.62-1.7,0.59-2.32-0.08
	c-0.62-0.66-0.59-1.7,0.08-2.32l7.48-7.08l-7.48-6.96c-0.66-0.62-0.7-1.66-0.08-2.32C902.25,29.73,903.29,29.7,903.95,30.32
	L903.95,30.32z M880.94,32.72l-7.49,6.96l7.49,7.08c0.66,0.62,0.7,1.66,0.08,2.32c-0.62,0.66-1.66,0.7-2.32,0.08l-8.77-8.22
	c-0.33-0.37-0.52-0.75-0.52-1.26c0-0.39,0.19-0.83,0.52-1.14l8.77-8.22c0.66-0.62,1.7-0.59,2.32,0.08
	C881.64,31.06,881.61,32.09,880.94,32.72L880.94,32.72z"/>
<path fill="#E6E6E6" d="M980.97,87.8h-30.54c-1.47,0-2.66,1.19-2.66,2.66v15.93c0,4.4,3.57,7.97,7.97,7.97h15.93
	c4.4,0,7.97-3.57,7.97-7.97h1.33c5.12,0,9.29-4.17,9.29-9.29C990.27,91.97,986.1,87.8,980.97,87.8z M975.66,106.38
	c0,2.2-1.78,3.98-3.98,3.98h-15.93c-2.2,0-3.98-1.78-3.98-3.98V91.78h23.9V106.38z M980.97,102.4h-1.33V91.78h1.33
	c2.93,0,5.31,2.39,5.31,5.31S983.9,102.4,980.97,102.4z M956.73,80.22c1.03,0.53,1.67,1.72,1.67,2.93c0,1.1,0.89,1.98,1.99,1.98
	s1.99-0.98,1.99-2.01c0-2.6-1.4-5.03-3.64-6.34c-1.03-0.6-1.67-1.71-1.67-2.9c0-1.1-0.89-2-1.99-2c-1.1,0-1.99,0.9-1.99,2
	C953.09,76.48,954.48,78.91,956.73,80.22z M966.03,80.22c1.03,0.53,1.67,1.72,1.67,2.93c0,1.1,0.89,1.98,1.99,1.98
	s1.99-0.98,1.99-2.01c0-2.6-1.4-5.03-3.64-6.34c-1.03-0.6-1.67-1.71-1.67-2.9c0-1.1-0.89-2.01-1.99-2.01s-1.99,0.91-1.99,2.01
	C962.38,76.48,963.78,78.91,966.03,80.22z"/>
<path fill="#E6E6E6" d="M807.31,161l-2.56,0c-3.11,0-5.62,2.53-5.62,5.66v6.18h-3.07c-0.85,0-1.53,0.69-1.53,1.54
	c0,0.85,0.69,1.55,1.53,1.55h3.07v10.3c0,1.42-1.14,2.57-2.56,2.57h-0.51c-0.85,0-1.53,0.69-1.53,1.54c0,0.85,0.69,1.54,1.53,1.54
	h0.51c3.11,0,5.62-2.53,5.62-5.66v-10.3h3.07c0.85,0,1.53-0.69,1.53-1.54c0-0.85-0.69-1.54-1.53-1.54h-3.07v-6.18
	c0-1.42,1.14-2.57,2.56-2.57h2.56c0.85,0,1.53-0.69,1.53-1.54C808.84,161.7,808.16,161,807.31,161z M814.44,169.79
	c-0.73-0.56-1.74-0.38-2.24,0.4c-2.17,3.38-3.36,7.32-3.36,11.41c0,4.04,1.18,8.03,3.36,11.42c0.5,0.77,9.51,0.95,10.24,0.4
	c0.63-0.48-7.22-1.36-7.64-2.03c-1.86-2.9-2.88-6.32-2.88-9.78c0-3.45,1.02-6.88,2.88-9.72
	C815.22,171.15,815.07,170.27,814.44,169.79z M832.08,170.18c-0.5-0.77-1.51-0.95-2.24-0.4c-0.63,0.48-0.78,1.36-0.36,2.03
	c1.86,2.9,2.88,6.32,2.88,9.77c0,3.45-1.02,6.88-2.88,9.72c-0.43,0.67,7.73,1.55,8.36,2.03c0.73,0.56-6.26,0.38-5.76-0.4
	c2.17-3.32,3.36-7.32,3.36-11.36C835.43,177.5,834.25,173.56,832.08,170.18z M826.55,177.09c-0.58-0.58-1.53-0.58-2.05,0l-2.36,2.38
	l-2.36-2.38c-0.58-0.58-1.53-0.58-2.11,0c-0.58,0.58-0.58,1.54,0,2.12l2.36,2.38l-2.36,2.38c-0.58,0.58-0.58,1.54,0,2.12
	c0.58,0.58,1.53,0.58,2.11,0l2.36-2.38l2.36,2.38c0.58,0.58,1.53,0.58,2.05,0c0.58-0.58,0.58-1.54,0-2.12l-2.31-2.39l2.31-2.38
	C827.19,178.63,827.19,177.67,826.55,177.09z"/>
<path fill="#E6E6E6" d="M982.73,190.2v-23.44c0-2.04-1.66-3.7-3.7-3.7h-24.67c-3.4,0-6.17,2.77-6.17,6.17v27.14
	c0,3.4,2.77,6.17,6.17,6.17h26.52c1.02,0,1.85-0.83,1.85-1.85c0-1.02-0.83-1.85-1.85-1.85h-0.62v-5.16
	C981.7,193.16,982.73,191.81,982.73,190.2z M976.56,198.84h-22.21c-1.36,0-2.47-1.11-2.47-2.47s1.11-2.47,2.47-2.47h22.21V198.84z
	 M979.03,190.2h-24.67c-0.88,0-1.71,0.18-2.47,0.52v-21.49c0-1.36,1.11-2.47,2.47-2.47h24.67V190.2z M959.91,175.4h13.57
	c1.03,0,1.85-0.82,1.85-1.85s-0.82-1.85-1.85-1.85h-13.57c-1.02,0-1.85,0.83-1.85,1.85S958.89,175.4,959.91,175.4z M959.91,181.57
	h13.57c1.03,0,1.85-0.82,1.85-1.85s-0.82-1.85-1.85-1.85h-13.57c-1.02,0-1.85,0.83-1.85,1.85S958.89,181.57,959.91,181.57z"/>
<path fill="#E6E6E6" d="M892.79,108.17l0.89,0.96l0.96-0.96c2.68-2.62,6.4-3.81,10.05-3.2c5.52,0.92,9.56,5.7,9.56,11.29v0.46
	c0,3.32-1.38,6.5-3.81,8.77l-14.47,13.51c-0.6,0.56-1.39,0.87-2.22,0.87s-1.62-0.31-2.22-0.87l-14.47-13.51
	c-2.43-2.27-3.81-5.45-3.81-8.77v-0.46c0-5.6,4.05-10.37,9.56-11.29C886.39,104.36,890.18,105.55,892.79,108.17
	C892.72,108.17,892.79,108.17,892.79,108.17L892.79,108.17z M893.68,114.57l-3.6-3.75c-1.74-1.67-4.21-2.46-6.63-2.06
	c-3.66,0.61-6.35,3.79-6.35,7.5v0.46c0,2.26,0.94,4.42,2.59,5.96l14.07,13.14l14.07-13.14c1.65-1.54,2.59-3.7,2.59-5.96v-0.46
	c0-3.72-2.69-6.89-6.35-7.5c-2.43-0.4-4.89,0.39-6.63,2.06L893.68,114.57z"/>
<path fill="#E6E6E6" d="M889.89,218.28c-0.39-0.9-1.87-0.9-2.26,0l-4.33,9.89c-0.27,0.63,0.01,1.35,0.64,1.63
	c0.62,0.28,1.35-0.01,1.63-0.64l0.76-1.73h4.87l0.76,1.73c0.13,0.46,0.65,0.74,1.13,0.74c0.17,0,0.33-0.03,0.49-0.1
	c0.63-0.27,0.91-1,0.64-1.63L889.89,218.28z M887.4,224.95l1.35-3.1l1.35,3.1H887.4z M898.64,217.54c-0.68,0-1.24,0.56-1.24,1.24
	v9.89c0,0.68,0.55,1.24,1.24,1.24c0.68,0,1.24-0.56,1.24-1.24v-9.89C899.88,218.09,899.32,217.54,898.64,217.54z M911,224.95
	c0.68,0,1.24-0.56,1.24-1.24c0-0.68-0.55-1.24-1.24-1.24h-3.71v-4.94H911c0.68,0,1.24-0.56,1.24-1.24c0-0.68-0.55-1.24-1.24-1.24
	h-3.71v-1.24c0-2.73-2.21-4.94-4.94-4.94h-1.24v-3.71c0-0.68-0.56-1.24-1.24-1.24c-0.68,0-1.24,0.55-1.24,1.24v3.71h-4.94v-3.71
	c0-0.68-0.56-1.24-1.24-1.24s-1.24,0.55-1.24,1.24v3.71h-4.94v-3.71c0-0.68-0.56-1.24-1.24-1.24s-1.24,0.55-1.24,1.24v3.71h-1.24
	c-2.73,0-4.94,2.21-4.94,4.94v1.24h-3.71c-0.68,0-1.24,0.56-1.24,1.24c0,0.68,0.55,1.24,1.24,1.24h3.71v4.94h-3.71
	c-0.68,0-1.24,0.56-1.24,1.24c0,0.68,0.55,1.24,1.24,1.24h3.71v4.94h-3.71c-0.68,0-1.24,0.56-1.24,1.24s0.55,1.24,1.24,1.24h3.71
	v1.24c0,2.73,2.21,4.94,4.94,4.94h1.24v3.71c0,0.68,0.56,1.24,1.24,1.24s1.24-0.55,1.24-1.24v-3.71h4.94v3.71
	c0,0.68,0.55,1.24,1.24,1.24s1.24-0.55,1.24-1.24v-3.71h4.94v3.71c0,0.68,0.55,1.24,1.24,1.24c0.68,0,1.24-0.55,1.24-1.24v-3.71
	h1.24c2.73,0,4.94-2.21,4.94-4.94v-1.24H911c0.68,0,1.24-0.55,1.24-1.24c0-0.68-0.55-1.24-1.24-1.24h-3.71v-4.94H911z
	 M904.82,233.61c0,1.36-1.11,2.47-2.47,2.47h-19.78c-1.36,0-2.47-1.11-2.47-2.47v-19.78c0-1.36,1.11-2.47,2.47-2.47h19.78
	c1.36,0,2.47,1.11,2.47,2.47V233.61z"/>
<path fill="#E6E6E6" d="M826.44,259.5c0,2.2-1.74,3.88-3.88,3.88s-3.88-1.68-3.88-3.88c0-2.08,1.74-3.88,3.88-3.88
	S826.44,257.42,826.44,259.5z M822.56,261.16c0.92,0,1.66-0.68,1.66-1.66c0-0.86-0.74-1.66-1.66-1.66s-1.66,0.8-1.66,1.66
	C820.89,260.48,821.64,261.16,822.56,261.16z M821.21,281.44l-7.03,3.51c-0.35,0.17-0.76,0.15-1.08-0.05
	c-0.33-0.2-0.53-0.56-0.53-0.94v-7.95c0-1.72-0.68-3.36-1.89-4.57c-1.21-1.21-2.86-1.89-4.57-1.89h-7.95c-0.38,0-0.74-0.2-0.94-0.53
	c-0.2-0.33-0.22-0.73-0.05-1.08l3.52-7.03c0.75-1.5,2.29-2.52,3.97-2.52h6.74c5.54-9.07,14.04-9.4,19.19-8.45
	c0.81,0.15,1.43,0.78,1.58,1.58c0.96,5.16,0.62,13.66-8.5,19.13v6.81C823.67,279.15,822.72,280.68,821.21,281.44L821.21,281.44z
	 M813.92,272.21c8.48-2.09,12.61-5.85,14.59-9.4c2.04-3.71,2.04-7.72,1.51-10.72c-2.99-0.53-7.01-0.53-10.72,1.51
	c-3.61,1.99-7.31,6.12-9.4,14.59c0.86,0.42,1.66,0.98,2.34,1.67C812.94,270.55,813.51,271.35,813.92,272.21z M814.8,282.16
	l5.43-2.77c0.76-0.32,1.23-1.08,1.23-1.93v-5.55c-1.94,0.94-4.19,1.75-6.82,2.35c0.11,0.61,0.17,1.17,0.17,1.75V282.16z
	 M807.79,267.49c0.66-2.63,1.48-4.94,2.41-6.88h-5.55c-0.84,0-1.61,0.53-1.99,1.29l-2.71,5.43h6.16
	C806.62,267.32,807.25,267.38,807.79,267.49L807.79,267.49z M808.59,282.16c-3.43,3.43-11.51,2.88-11.51,2.88s-0.55-8.14,2.88-11.51
	c2.38-2.38,6.25-2.38,8.63,0S810.98,279.77,808.59,282.16L808.59,282.16z M807.03,275.09c-1.58-1.52-3.98-1.52-5.5,0
	c-1.15,1.15-1.81,3.35-2.09,5.73c-0.09,0.73-0.13,1.41-0.15,2.01c0.6-0.03,1.28-0.07,2-0.15c2.38-0.28,4.58-0.95,5.74-2.09
	C808.54,279.07,808.54,276.61,807.03,275.09L807.03,275.09z"/>
<path fill="#E6E6E6" d="M970.64,271.04c0.21,0.21,0.49,0.32,0.76,0.32c0.28,0,0.55-0.11,0.76-0.32l4.32-4.32
	c0.42-0.42,0.42-1.11,0-1.53l-4.32-4.32c-0.42-0.42-1.11-0.42-1.53,0c-0.42,0.42-0.42,1.11,0,1.53l3.56,3.56l-3.56,3.56
	C970.22,269.93,970.22,270.62,970.64,271.04z M963.53,260.88c-0.42-0.42-1.11-0.42-1.53,0l-4.32,4.32c-0.42,0.42-0.42,1.11,0,1.53
	l4.32,4.32c0.21,0.21,0.49,0.32,0.76,0.32s0.55-0.11,0.76-0.32c0.42-0.42,0.42-1.11,0-1.53l-3.56-3.56l3.56-3.56
	C963.96,261.98,963.96,261.29,963.53,260.88z M950.89,274.59c0.6,0,1.08-0.49,1.08-1.08v-16.19c0-1.19,0.97-2.16,2.16-2.16h25.91
	c1.19,0,2.16,0.97,2.16,2.16v16.19c0,0.6,0.48,1.08,1.08,1.08c0.6,0,1.08-0.48,1.08-1.08v-16.19c0-2.38-1.94-4.32-4.32-4.32h-25.91
	c-2.38,0-4.32,1.94-4.32,4.32v16.19C949.81,274.11,950.3,274.59,950.89,274.59z M987.6,276.75h-41.03c-0.59,0-1.08,0.49-1.08,1.08
	v1.08c0,2.38,1.94,4.32,4.32,4.32h34.55c2.38,0,4.32-1.94,4.32-4.32v-1.08C988.68,277.25,988.19,276.75,987.6,276.75z
	 M984.36,281.07h-34.55c-1.19,0-2.16-0.97-2.16-2.16h38.87C986.52,280.1,985.55,281.07,984.36,281.07z"/>
<g>
</g>
<g>
</g>
<g>
</g>
<g>
</g>
<g>
</g>
<g>
</g>
<g>
</g>
<g>
</g>
<g>
</g>
<g>
</g>
<g>
</g>
<g>
</g>
<g>
</g>
<g>
</g>
<g>
</g>
</svg>
