<?xml version="1.0" encoding="utf-8"?>
<!-- Generator: Adobe Illustrator 26.0.2, SVG Export Plug-In . SVG Version: 6.00 Build 0)  -->
<svg version="1.2" baseProfile="tiny" id="Layer_1" xmlns="http://www.w3.org/2000/svg" xmlns:xlink="http://www.w3.org/1999/xlink"
	 x="0px" y="0px" viewBox="0 0 1000 300" overflow="visible" xml:space="preserve">
<g>
	<rect x="36.93" y="74.45" fill="none" width="166.21" height="25.17"/>
	<path d="M48.24,90.24v-6.89H40.5v6.89H38.8V75.02h1.69v6.82h7.74v-6.82h1.67v15.22H48.24z"/>
	<path d="M60.74,88.88l0.64-0.07l0.04,1.3c-1.67,0.23-3.1,0.35-4.29,0.35c-1.58,0-2.71-0.46-3.37-1.38
		c-0.66-0.92-0.99-2.34-0.99-4.28c0-3.86,1.53-5.79,4.6-5.79c1.48,0,2.59,0.41,3.32,1.24s1.1,2.13,1.1,3.91l-0.09,1.25h-7.26
		c0,1.22,0.22,2.12,0.66,2.71s1.21,0.88,2.3,0.88C58.5,89.01,59.61,88.97,60.74,88.88z M60.14,84.11c0-1.35-0.22-2.3-0.65-2.86
		c-0.43-0.56-1.14-0.84-2.11-0.84c-0.98,0-1.71,0.29-2.2,0.88c-0.49,0.59-0.74,1.53-0.76,2.82H60.14z"/>
	<path d="M63.13,79.24h1.65l2.75,9.57h0.73l2.77-9.57h1.65l-4.58,15.88h-1.65l1.43-4.88h-1.63L63.13,79.24z"/>
	<path d="M78.8,92.95l1.01-5.06h1.83l-1.47,5.06H78.8z"/>
	<path d="M91.03,90.24h-1.65v-11h1.63v0.77c1.1-0.66,2.17-0.99,3.21-0.99c1.36,0,2.32,0.37,2.86,1.12c0.48-0.29,1.11-0.55,1.88-0.78
		s1.45-0.34,2.04-0.34c1.47,0,2.45,0.39,2.96,1.18c0.51,0.78,0.76,2.2,0.76,4.23v5.81h-1.65v-5.76c0-1.52-0.15-2.57-0.44-3.13
		c-0.29-0.56-0.92-0.85-1.87-0.85c-0.48,0-0.98,0.07-1.5,0.21c-0.51,0.14-0.91,0.27-1.19,0.41l-0.42,0.2
		c0.19,0.48,0.29,1.55,0.29,3.21v5.72h-1.65v-5.68c0-1.58-0.14-2.66-0.43-3.22c-0.29-0.56-0.91-0.85-1.88-0.85
		c-0.47,0-0.95,0.07-1.44,0.21c-0.49,0.14-0.87,0.27-1.13,0.41l-0.37,0.2V90.24z"/>
	<path d="M106.61,79.24h1.65l2.75,9.57h0.73l2.77-9.57h1.65l-4.58,15.88h-1.65l1.43-4.88h-1.63L106.61,79.24z"/>
	<path d="M124.75,90.24h-1.65v-11h1.63v0.77c1.19-0.66,2.32-0.99,3.41-0.99c1.47,0,2.45,0.4,2.96,1.19s0.76,2.2,0.76,4.22v5.81
		h-1.63v-5.76c0-1.52-0.15-2.57-0.45-3.13c-0.3-0.56-0.94-0.85-1.93-0.85c-0.47,0-0.96,0.07-1.48,0.21
		c-0.52,0.14-0.92,0.27-1.2,0.41l-0.42,0.2V90.24z"/>
	<path d="M142.68,82.57v5.63c0.04,0.54,0.47,0.87,1.28,0.97l-0.07,1.3c-1.16,0-2.03-0.29-2.62-0.88c-1.32,0.59-2.64,0.88-3.96,0.88
		c-1.01,0-1.78-0.29-2.31-0.86c-0.53-0.57-0.79-1.39-0.79-2.46c0-1.07,0.27-1.86,0.81-2.36c0.54-0.51,1.39-0.82,2.55-0.94l3.45-0.33
		v-0.95c0-0.75-0.16-1.28-0.48-1.61c-0.32-0.32-0.76-0.48-1.32-0.48c-1.17,0-2.39,0.07-3.65,0.22l-0.68,0.07l-0.07-1.25
		c1.61-0.32,3.04-0.48,4.29-0.48c1.25,0,2.15,0.29,2.72,0.86C142.4,80.45,142.68,81.35,142.68,82.57z M135.91,87.05
		c0,1.35,0.56,2.02,1.67,2.02c1,0,1.98-0.17,2.95-0.51l0.51-0.18v-3.63l-3.26,0.31c-0.66,0.06-1.14,0.25-1.43,0.57
		C136.05,85.97,135.91,86.44,135.91,87.05z"/>
	<path d="M147.59,90.24h-1.65v-11h1.63v0.77c1.1-0.66,2.17-0.99,3.21-0.99c1.36,0,2.32,0.37,2.86,1.12
		c0.48-0.29,1.11-0.55,1.88-0.78s1.45-0.34,2.04-0.34c1.47,0,2.45,0.39,2.96,1.18c0.51,0.78,0.76,2.2,0.76,4.23v5.81h-1.65v-5.76
		c0-1.52-0.15-2.57-0.44-3.13c-0.29-0.56-0.92-0.85-1.87-0.85c-0.48,0-0.98,0.07-1.5,0.21c-0.51,0.14-0.91,0.27-1.19,0.41l-0.42,0.2
		c0.19,0.48,0.29,1.55,0.29,3.21v5.72h-1.65v-5.68c0-1.58-0.14-2.66-0.43-3.22c-0.29-0.56-0.91-0.85-1.88-0.85
		c-0.47,0-0.95,0.07-1.44,0.21c-0.49,0.14-0.87,0.27-1.13,0.41l-0.37,0.2V90.24z"/>
	<path d="M171.81,88.88l0.64-0.07l0.04,1.3c-1.67,0.23-3.1,0.35-4.29,0.35c-1.58,0-2.71-0.46-3.37-1.38
		c-0.66-0.92-0.99-2.34-0.99-4.28c0-3.86,1.53-5.79,4.6-5.79c1.48,0,2.59,0.41,3.32,1.24s1.1,2.13,1.1,3.91l-0.09,1.25h-7.26
		c0,1.22,0.22,2.12,0.66,2.71s1.21,0.88,2.3,0.88C169.57,89.01,170.68,88.97,171.81,88.88z M171.22,84.11c0-1.35-0.22-2.3-0.65-2.86
		c-0.43-0.56-1.14-0.84-2.11-0.84c-0.98,0-1.71,0.29-2.2,0.88c-0.49,0.59-0.74,1.53-0.76,2.82H171.22z"/>
	<path d="M180.28,76.76v-1.91h1.65v1.91H180.28z M180.28,90.24v-11h1.65v11H180.28z"/>
	<path d="M188.55,80.5c-1.6,0-2.4,0.56-2.4,1.67c0,0.51,0.18,0.88,0.55,1.09s1.2,0.43,2.51,0.66c1.31,0.23,2.23,0.55,2.77,0.96
		c0.54,0.41,0.81,1.18,0.81,2.31c0,1.13-0.36,1.96-1.09,2.49c-0.73,0.53-1.79,0.79-3.18,0.79c-0.91,0-1.98-0.1-3.21-0.31l-0.66-0.11
		l0.09-1.43c1.67,0.25,2.93,0.37,3.78,0.37c0.85,0,1.5-0.14,1.95-0.41c0.45-0.27,0.67-0.73,0.67-1.36c0-0.64-0.19-1.07-0.57-1.3
		c-0.38-0.23-1.22-0.44-2.51-0.65c-1.29-0.21-2.21-0.51-2.75-0.9c-0.54-0.4-0.81-1.13-0.81-2.2c0-1.07,0.38-1.86,1.13-2.38
		c0.76-0.51,1.7-0.77,2.83-0.77c0.89,0,2.02,0.1,3.37,0.31l0.62,0.11l-0.04,1.41C190.78,80.62,189.49,80.5,188.55,80.5z"/>
</g>
<g>
	<rect x="36.93" y="119.43" fill="none" width="280.16" height="41.14"/>
	<path d="M49.25,124.23c-3.73,0-5.59,1.31-5.59,3.92c0,1.35,0.44,2.31,1.32,2.88c0.88,0.57,2.82,1.28,5.83,2.11
		c3.01,0.84,5.13,1.83,6.36,2.99c1.23,1.16,1.85,2.99,1.85,5.48c0,3.17-0.9,5.54-2.71,7.11c-1.8,1.57-4.26,2.35-7.37,2.35
		c-2.49,0-5.25-0.29-8.27-0.88l-1.58-0.31l0.48-3.92c3.96,0.53,6.98,0.79,9.06,0.79c3.64,0,5.46-1.61,5.46-4.84
		c0-1.26-0.41-2.19-1.23-2.79c-0.82-0.6-2.67-1.26-5.54-1.98c-2.88-0.72-5.02-1.71-6.42-2.97c-1.41-1.26-2.11-3.26-2.11-5.98
		s0.89-4.79,2.66-6.18c1.77-1.39,4.23-2.09,7.37-2.09c2.26,0,4.93,0.26,8.01,0.79l1.54,0.26l-0.4,3.96
		C53.86,124.46,50.95,124.23,49.25,124.23z"/>
	<path d="M80.01,135.36v10.03c0.03,0.65,0.2,1.12,0.51,1.43c0.31,0.31,0.78,0.51,1.43,0.59l-0.13,3.65c-2.52,0-4.47-0.54-5.85-1.63
		c-2.35,1.09-4.71,1.63-7.08,1.63c-4.37,0-6.56-2.33-6.56-7c0-2.23,0.59-3.84,1.78-4.84c1.19-1,3.01-1.6,5.48-1.8l5.68-0.48v-1.58
		c0-1.17-0.26-1.99-0.77-2.46c-0.51-0.47-1.27-0.7-2.27-0.7c-1.88,0-4.22,0.12-7.04,0.35l-1.41,0.09l-0.18-3.39
		c3.2-0.76,6.14-1.14,8.82-1.14c2.68,0,4.62,0.58,5.81,1.74C79.41,131,80.01,132.84,80.01,135.36z M70.15,140.81
		c-2.02,0.18-3.04,1.28-3.04,3.3c0,2.02,0.89,3.04,2.68,3.04c1.47,0,3.02-0.23,4.66-0.7l0.79-0.26v-5.85L70.15,140.81z"/>
	<path d="M86.08,149.75v-21.16h4.75v21.21c0,2.87-0.51,5-1.52,6.38c-1.01,1.38-3.04,2.85-6.09,4.4l-1.89-3.56
		c2.05-1.29,3.36-2.34,3.92-3.15C85.8,153.05,86.08,151.68,86.08,149.75z M86.08,124.84v-5.06h4.75v5.06H86.08z"/>
	<path d="M112.96,135.36v10.03c0.03,0.65,0.2,1.12,0.51,1.43c0.31,0.31,0.78,0.51,1.43,0.59l-0.13,3.65c-2.52,0-4.47-0.54-5.85-1.63
		c-2.35,1.09-4.71,1.63-7.08,1.63c-4.37,0-6.56-2.33-6.56-7c0-2.23,0.59-3.84,1.78-4.84c1.19-1,3.01-1.6,5.48-1.8l5.68-0.48v-1.58
		c0-1.17-0.26-1.99-0.77-2.46c-0.51-0.47-1.27-0.7-2.27-0.7c-1.88,0-4.22,0.12-7.04,0.35l-1.41,0.09l-0.18-3.39
		c3.2-0.76,6.14-1.14,8.82-1.14c2.68,0,4.62,0.58,5.81,1.74C112.37,131,112.96,132.84,112.96,135.36z M103.11,140.81
		c-2.02,0.18-3.04,1.28-3.04,3.3c0,2.02,0.89,3.04,2.68,3.04c1.47,0,3.02-0.23,4.66-0.7l0.79-0.26v-5.85L103.11,140.81z"/>
	<path d="M136.94,119.43v31.15h-4.75v-1.14c-2.14,1.09-4.11,1.63-5.9,1.63c-2.88,0-4.98-0.86-6.31-2.6c-1.33-1.73-2-4.63-2-8.71
		c0-4.08,0.74-7.04,2.22-8.89c1.48-1.85,3.79-2.77,6.93-2.77c1.06,0,2.73,0.19,5.02,0.57v-9.24H136.94z M131.4,146.01l0.75-0.31
		v-13.02c-1.76-0.29-3.39-0.44-4.88-0.44c-2.96,0-4.44,2.46-4.44,7.39c0,2.7,0.34,4.57,1.03,5.61c0.69,1.04,1.78,1.56,3.28,1.56
		S130.05,146.53,131.4,146.01z"/>
	<path d="M157.89,150.58H153v-30.14h4.88v13.6l4.49-0.35l6.16-13.24h5.59l-7.44,15.14l7.74,15h-5.68L162.37,138l-4.49,0.31V150.58z"
		/>
	<path d="M178.59,130.96c1.51-1.91,4.03-2.86,7.55-2.86s6.03,0.95,7.55,2.86c1.51,1.91,2.27,4.77,2.27,8.58
		c0,3.81-0.73,6.69-2.2,8.62c-1.47,1.94-4,2.9-7.61,2.9c-3.61,0-6.15-0.97-7.61-2.9s-2.2-4.81-2.2-8.62
		C176.32,135.73,177.08,132.87,178.59,130.96z M182.17,145.26c0.67,1.17,1.99,1.76,3.96,1.76c1.96,0,3.28-0.59,3.96-1.76
		c0.67-1.17,1.01-3.09,1.01-5.76c0-2.67-0.36-4.56-1.08-5.68c-0.72-1.11-2.02-1.67-3.89-1.67c-1.88,0-3.18,0.56-3.89,1.67
		c-0.72,1.12-1.08,3.01-1.08,5.68C181.16,142.16,181.5,144.09,182.17,145.26z"/>
	<path d="M200.96,150.58v-31.15h4.8v31.15H200.96z"/>
	<path d="M228.11,135.36v10.03c0.03,0.65,0.2,1.12,0.51,1.43c0.31,0.31,0.78,0.51,1.43,0.59l-0.13,3.65c-2.52,0-4.47-0.54-5.85-1.63
		c-2.35,1.09-4.71,1.63-7.08,1.63c-4.37,0-6.56-2.33-6.56-7c0-2.23,0.59-3.84,1.78-4.84c1.19-1,3.01-1.6,5.48-1.8l5.68-0.48v-1.58
		c0-1.17-0.26-1.99-0.77-2.46c-0.51-0.47-1.27-0.7-2.27-0.7c-1.88,0-4.22,0.12-7.04,0.35l-1.41,0.09l-0.18-3.39
		c3.2-0.76,6.14-1.14,8.82-1.14c2.68,0,4.62,0.58,5.81,1.74C227.52,131,228.11,132.84,228.11,135.36z M218.25,140.81
		c-2.02,0.18-3.04,1.28-3.04,3.3c0,2.02,0.89,3.04,2.68,3.04c1.47,0,3.02-0.23,4.66-0.7l0.79-0.26v-5.85L218.25,140.81z"/>
	<path d="M238.93,150.58h-4.8v-31.15h4.8v10.3c2.17-1.08,4.18-1.63,6.03-1.63c2.93,0,4.94,0.83,6.01,2.49
		c1.07,1.66,1.61,4.39,1.61,8.21v11.79h-4.8v-11.66c0-2.38-0.25-4.06-0.75-5.06c-0.5-1-1.56-1.5-3.17-1.5
		c-1.41,0-2.82,0.23-4.22,0.7l-0.7,0.26V150.58z"/>
	<path d="M266.39,128.1c1.55,0,3.39,0.21,5.5,0.62l1.1,0.22l-0.18,3.78c-2.32-0.23-4.03-0.35-5.15-0.35c-2.23,0-3.73,0.5-4.49,1.5
		c-0.76,1-1.14,2.88-1.14,5.63c0,2.76,0.37,4.66,1.1,5.72c0.73,1.06,2.26,1.58,4.58,1.58l5.15-0.35l0.13,3.83
		c-2.96,0.53-5.19,0.79-6.69,0.79c-3.34,0-5.7-0.9-7.06-2.71c-1.36-1.8-2.05-4.76-2.05-8.87c0-4.11,0.72-7.03,2.16-8.78
		C260.79,128.97,263.13,128.1,266.39,128.1z"/>
	<path d="M282.4,150.58h-4.8v-31.15h4.8v10.3c2.17-1.08,4.18-1.63,6.03-1.63c2.93,0,4.94,0.83,6.01,2.49
		c1.07,1.66,1.61,4.39,1.61,8.21v11.79h-4.8v-11.66c0-2.38-0.25-4.06-0.75-5.06c-0.5-1-1.56-1.5-3.17-1.5
		c-1.41,0-2.82,0.23-4.22,0.7l-0.7,0.26V150.58z"/>
	<path d="M301.63,124.84v-5.06h4.8v5.06H301.63z M301.63,150.58v-22h4.8v22H301.63z"/>
</g>
<path fill="#F2F2F2" d="M236.59,214.1H43.48c-3.6,0-6.55-2.95-6.55-6.55v-17.24c0-3.6,2.95-6.55,6.55-6.55h193.1
	c3.6,0,6.55,2.95,6.55,6.55v17.24C243.14,211.16,240.19,214.1,236.59,214.1z"/>
<g>
	<rect x="42.11" y="192.87" fill="none" width="194.58" height="15.04"/>
	<path d="M69.22,202.82c-0.96,0.2-1.78,0.29-2.46,0.29s-1.23-0.07-1.65-0.22c-0.42-0.14-0.75-0.35-1.02-0.61s-0.47-0.6-0.62-1.02
		c-0.28-0.77-0.42-1.81-0.42-3.12c0-2.11,0.34-3.5,1.01-4.19c0.55-0.57,1.39-0.85,2.52-0.85c0.77,0,1.65,0.1,2.63,0.29l-0.04,0.76
		c-0.97-0.18-1.75-0.27-2.34-0.27s-1.04,0.06-1.36,0.19c-0.32,0.13-0.58,0.29-0.78,0.5s-0.35,0.5-0.46,0.88
		c-0.19,0.63-0.28,1.43-0.28,2.38s0.03,1.66,0.1,2.14c0.07,0.47,0.19,0.9,0.38,1.28c0.19,0.38,0.46,0.66,0.83,0.83
		c0.36,0.17,0.87,0.25,1.51,0.25s1.45-0.09,2.41-0.27L69.22,202.82z"/>
	<path d="M70.41,199.46c0-1.32,0.22-2.25,0.67-2.8s1.2-0.83,2.27-0.83s1.82,0.28,2.27,0.83s0.67,1.48,0.67,2.8s-0.2,2.25-0.61,2.81
		c-0.41,0.56-1.18,0.84-2.32,0.84s-1.91-0.28-2.32-0.84C70.62,201.71,70.41,200.78,70.41,199.46z M71.28,199.44
		c0,1.11,0.13,1.87,0.38,2.3s0.82,0.64,1.68,0.64s1.43-0.21,1.69-0.64c0.26-0.43,0.39-1.19,0.39-2.29c0-1.1-0.15-1.85-0.44-2.25
		c-0.29-0.41-0.84-0.61-1.63-0.61c-0.79,0-1.34,0.2-1.63,0.6C71.43,197.58,71.28,198.33,71.28,199.44z"/>
	<path d="M78.91,202.97h-0.83v-7h0.83v0.52c0.71-0.44,1.47-0.66,2.27-0.66s1.37,0.25,1.71,0.74c0.34-0.21,0.74-0.38,1.23-0.52
		c0.48-0.14,0.91-0.22,1.29-0.22c0.93,0,1.56,0.25,1.87,0.74c0.31,0.49,0.47,1.4,0.47,2.72v3.68h-0.83v-3.64
		c0-1.07-0.1-1.8-0.3-2.18s-0.64-0.57-1.31-0.57c-0.34,0-0.68,0.05-1.04,0.15c-0.35,0.1-0.62,0.2-0.81,0.3l-0.28,0.14
		c0.14,0.35,0.21,1.07,0.21,2.16v3.64h-0.84v-3.61c0-1.09-0.1-1.83-0.3-2.21s-0.63-0.57-1.29-0.57c-0.33,0-0.66,0.05-1,0.15
		s-0.6,0.2-0.78,0.3l-0.27,0.14V202.97z"/>
	<path d="M89.77,206.12v-10.15h0.83v0.53c0.73-0.45,1.5-0.67,2.3-0.67c0.81,0,1.41,0.29,1.81,0.85c0.4,0.57,0.6,1.5,0.6,2.78
		s-0.23,2.21-0.7,2.79s-1.24,0.86-2.32,0.86c-0.58,0-1.14-0.06-1.68-0.18v3.19H89.77z M92.73,196.59c-0.31,0-0.64,0.05-0.99,0.15
		c-0.35,0.1-0.63,0.21-0.83,0.32l-0.31,0.15v4.98c0.63,0.11,1.19,0.17,1.65,0.17c0.8,0,1.37-0.23,1.69-0.68
		c0.33-0.45,0.49-1.2,0.49-2.24c0-1.04-0.14-1.78-0.43-2.21C93.72,196.81,93.3,196.59,92.73,196.59z"/>
	<path d="M101.52,195.97h0.83v7h-0.83v-0.52c-0.72,0.44-1.44,0.66-2.16,0.66c-0.95,0-1.58-0.24-1.88-0.73
		c-0.3-0.48-0.46-1.4-0.46-2.76v-3.65h0.83v3.64c0,1.08,0.1,1.81,0.3,2.18s0.64,0.56,1.31,0.56c0.33,0,0.66-0.05,1.01-0.15
		c0.35-0.1,0.61-0.2,0.78-0.3l0.27-0.14V195.97z"/>
	<path d="M107.99,196.72h-2.34v3.46c0,0.9,0.07,1.5,0.2,1.78c0.13,0.28,0.44,0.42,0.92,0.42l1.29-0.1l0.06,0.71
		c-0.62,0.09-1.09,0.14-1.41,0.14c-0.71,0-1.2-0.17-1.48-0.53c-0.28-0.35-0.41-1.02-0.41-2.01v-3.88h-1.04v-0.74h1.04v-2.2h0.84v2.2
		h2.34V196.72z"/>
	<path d="M113.94,202.28l0.42-0.04l0.03,0.69c-1.05,0.13-1.95,0.2-2.67,0.2c-1.01-0.01-1.71-0.31-2.11-0.9
		c-0.4-0.59-0.6-1.49-0.6-2.72c0-2.44,0.96-3.67,2.88-3.67c0.92,0,1.61,0.26,2.07,0.79c0.46,0.53,0.69,1.37,0.69,2.53l-0.03,0.67
		h-4.76c0,0.86,0.15,1.5,0.44,1.91c0.29,0.42,0.8,0.62,1.51,0.62C112.52,202.36,113.23,202.33,113.94,202.28z M109.85,199.12h3.95
		c0-0.92-0.15-1.58-0.46-1.97c-0.3-0.39-0.79-0.59-1.46-0.59c-0.67,0-1.17,0.2-1.52,0.61S109.85,198.23,109.85,199.12z"/>
	<path d="M116.36,202.97v-7h0.83v1.01c0.35-0.24,0.77-0.47,1.27-0.7c0.5-0.22,0.96-0.37,1.38-0.45v0.84
		c-0.4,0.08-0.82,0.21-1.26,0.38c-0.44,0.17-0.78,0.32-1.02,0.46l-0.36,0.21v5.25H116.36z"/>
	<path d="M126.99,193.86c-1.5,0-2.25,0.57-2.25,1.72c0,0.67,0.17,1.12,0.51,1.36c0.34,0.23,1.01,0.45,2,0.64
		c0.99,0.2,1.7,0.47,2.13,0.81c0.42,0.35,0.64,0.92,0.64,1.74c0,1.05-0.26,1.8-0.78,2.26c-0.52,0.46-1.28,0.69-2.28,0.69
		c-0.73,0-1.57-0.07-2.53-0.2l-0.5-0.07l0.1-0.74c1.28,0.16,2.27,0.24,2.97,0.24c0.7,0,1.23-0.17,1.6-0.51
		c0.36-0.34,0.55-0.84,0.55-1.5s-0.16-1.11-0.48-1.34c-0.32-0.24-0.83-0.42-1.54-0.55c-0.71-0.13-1.22-0.25-1.55-0.36
		s-0.63-0.26-0.92-0.46c-0.28-0.2-0.49-0.46-0.61-0.77c-0.12-0.31-0.18-0.71-0.18-1.18c0-1.7,1.03-2.55,3.08-2.55
		c0.62,0,1.42,0.06,2.41,0.2l0.46,0.07l-0.07,0.74C128.44,193.94,127.53,193.86,126.99,193.86z"/>
	<path d="M134.36,195.83c0.42,0,0.92,0.05,1.5,0.14l0.32,0.04l-0.04,0.71c-0.74-0.09-1.28-0.14-1.64-0.14c-0.83,0-1.4,0.2-1.71,0.61
		c-0.31,0.41-0.46,1.15-0.46,2.24c0,1.09,0.14,1.85,0.42,2.28c0.28,0.43,0.86,0.64,1.75,0.64l1.67-0.13l0.03,0.71
		c-0.83,0.11-1.45,0.17-1.85,0.17c-1.11,0-1.87-0.28-2.27-0.83c-0.41-0.55-0.61-1.5-0.61-2.84s0.22-2.28,0.67-2.81
		C132.57,196.1,133.32,195.83,134.36,195.83z"/>
	<path d="M137.82,194.22v-1.05h0.83v1.05H137.82z M137.82,202.97v-7h0.83v7H137.82z"/>
	<path d="M145.38,202.28l0.42-0.04l0.03,0.69c-1.05,0.13-1.95,0.2-2.67,0.2c-1.01-0.01-1.71-0.31-2.11-0.9
		c-0.4-0.59-0.6-1.49-0.6-2.72c0-2.44,0.96-3.67,2.88-3.67c0.92,0,1.61,0.26,2.07,0.79c0.46,0.53,0.69,1.37,0.69,2.53l-0.03,0.67
		h-4.76c0,0.86,0.15,1.5,0.44,1.91c0.29,0.42,0.8,0.62,1.51,0.62C143.96,202.36,144.67,202.33,145.38,202.28z M141.29,199.12h3.95
		c0-0.92-0.15-1.58-0.46-1.97c-0.3-0.39-0.79-0.59-1.46-0.59c-0.67,0-1.17,0.2-1.52,0.61S141.29,198.23,141.29,199.12z"/>
	<path d="M148.63,202.97h-0.83v-7h0.83v0.52c0.78-0.44,1.54-0.66,2.28-0.66c0.93,0,1.56,0.25,1.87,0.74s0.47,1.4,0.47,2.72v3.68
		h-0.84v-3.64c0-1.07-0.1-1.8-0.31-2.18c-0.21-0.38-0.64-0.57-1.32-0.57c-0.33,0-0.67,0.05-1.03,0.15s-0.64,0.2-0.83,0.3l-0.29,0.14
		V202.97z"/>
	<path d="M157.87,195.83c0.42,0,0.92,0.05,1.5,0.14l0.32,0.04l-0.04,0.71c-0.74-0.09-1.28-0.14-1.64-0.14c-0.83,0-1.4,0.2-1.71,0.61
		c-0.31,0.41-0.46,1.15-0.46,2.24c0,1.09,0.14,1.85,0.42,2.28c0.28,0.43,0.86,0.64,1.75,0.64l1.67-0.13l0.03,0.71
		c-0.83,0.11-1.45,0.17-1.85,0.17c-1.11,0-1.87-0.28-2.27-0.83c-0.41-0.55-0.61-1.5-0.61-2.84s0.22-2.28,0.67-2.81
		C156.08,196.1,156.82,195.83,157.87,195.83z"/>
	<path d="M165.86,202.28l0.42-0.04l0.03,0.69c-1.05,0.13-1.95,0.2-2.67,0.2c-1.01-0.01-1.71-0.31-2.11-0.9
		c-0.4-0.59-0.6-1.49-0.6-2.72c0-2.44,0.96-3.67,2.88-3.67c0.92,0,1.61,0.26,2.07,0.79c0.46,0.53,0.69,1.37,0.69,2.53l-0.03,0.67
		h-4.76c0,0.86,0.15,1.5,0.44,1.91c0.29,0.42,0.8,0.62,1.51,0.62C164.44,202.36,165.15,202.33,165.86,202.28z M161.78,199.12h3.95
		c0-0.92-0.15-1.58-0.46-1.97c-0.3-0.39-0.79-0.59-1.46-0.59c-0.67,0-1.17,0.2-1.52,0.61S161.78,198.23,161.78,199.12z"/>
	<path d="M174.17,193.86c-1.5,0-2.25,0.57-2.25,1.72c0,0.67,0.17,1.12,0.51,1.36c0.34,0.23,1.01,0.45,2,0.64
		c0.99,0.2,1.7,0.47,2.13,0.81c0.42,0.35,0.64,0.92,0.64,1.74c0,1.05-0.26,1.8-0.78,2.26c-0.52,0.46-1.28,0.69-2.28,0.69
		c-0.73,0-1.57-0.07-2.53-0.2l-0.5-0.07l0.1-0.74c1.28,0.16,2.27,0.24,2.97,0.24c0.7,0,1.23-0.17,1.6-0.51
		c0.36-0.34,0.55-0.84,0.55-1.5s-0.16-1.11-0.48-1.34c-0.32-0.24-0.83-0.42-1.54-0.55c-0.71-0.13-1.22-0.25-1.55-0.36
		s-0.63-0.26-0.92-0.46c-0.28-0.2-0.49-0.46-0.61-0.77c-0.12-0.31-0.18-0.71-0.18-1.18c0-1.7,1.03-2.55,3.08-2.55
		c0.62,0,1.42,0.06,2.41,0.2l0.46,0.07l-0.07,0.74C175.62,193.94,174.71,193.86,174.17,193.86z"/>
	<path d="M182.34,196.72H180v3.46c0,0.9,0.07,1.5,0.2,1.78c0.13,0.28,0.44,0.42,0.92,0.42l1.29-0.1l0.06,0.71
		c-0.62,0.09-1.09,0.14-1.41,0.14c-0.71,0-1.2-0.17-1.48-0.53c-0.28-0.35-0.41-1.02-0.41-2.01v-3.88h-1.04v-0.74h1.04v-2.2H180v2.2
		h2.34V196.72z"/>
	<path d="M188.08,195.97h0.83v7h-0.83v-0.52c-0.72,0.44-1.44,0.66-2.16,0.66c-0.95,0-1.58-0.24-1.88-0.73
		c-0.3-0.48-0.46-1.4-0.46-2.76v-3.65h0.83v3.64c0,1.08,0.1,1.81,0.3,2.18s0.64,0.56,1.31,0.56c0.33,0,0.66-0.05,1.01-0.15
		c0.35-0.1,0.61-0.2,0.78-0.3l0.27-0.14V195.97z"/>
	<path d="M196.24,192.87v10.11h-0.84v-0.52c-0.74,0.44-1.48,0.66-2.24,0.66c-0.35,0-0.64-0.04-0.9-0.12s-0.51-0.24-0.77-0.47
		c-0.53-0.48-0.8-1.41-0.8-2.79c0-1.39,0.22-2.38,0.67-2.99c0.45-0.61,1.2-0.91,2.27-0.91c0.41,0,1,0.06,1.76,0.18v-3.15H196.24z
		 M192.64,202.26c0.17,0.06,0.4,0.1,0.67,0.1s0.59-0.05,0.95-0.15c0.36-0.1,0.64-0.2,0.85-0.29l0.29-0.15v-5.01
		c-0.75-0.11-1.33-0.17-1.74-0.17c-0.79,0-1.34,0.24-1.65,0.73c-0.3,0.49-0.46,1.24-0.46,2.25c0,1.2,0.18,1.97,0.55,2.34
		C192.29,202.07,192.47,202.2,192.64,202.26z"/>
	<path d="M202.96,202.28l0.42-0.04l0.03,0.69c-1.05,0.13-1.95,0.2-2.67,0.2c-1.01-0.01-1.71-0.31-2.11-0.9
		c-0.4-0.59-0.6-1.49-0.6-2.72c0-2.44,0.96-3.67,2.88-3.67c0.92,0,1.61,0.26,2.07,0.79c0.46,0.53,0.69,1.37,0.69,2.53l-0.03,0.67
		h-4.76c0,0.86,0.15,1.5,0.44,1.91c0.29,0.42,0.8,0.62,1.51,0.62C201.54,202.36,202.25,202.33,202.96,202.28z M198.88,199.12h3.95
		c0-0.92-0.15-1.58-0.46-1.97c-0.3-0.39-0.79-0.59-1.46-0.59c-0.67,0-1.17,0.2-1.52,0.61S198.88,198.23,198.88,199.12z"/>
	<path d="M206.21,202.97h-0.83v-7h0.83v0.52c0.78-0.44,1.54-0.66,2.28-0.66c0.93,0,1.56,0.25,1.87,0.74s0.47,1.4,0.47,2.72v3.68
		h-0.84v-3.64c0-1.07-0.1-1.8-0.31-2.18c-0.21-0.38-0.64-0.57-1.32-0.57c-0.33,0-0.67,0.05-1.03,0.15s-0.64,0.2-0.83,0.3l-0.29,0.14
		V202.97z"/>
	<path d="M216.33,196.72h-2.34v3.46c0,0.9,0.07,1.5,0.2,1.78c0.13,0.28,0.44,0.42,0.92,0.42l1.29-0.1l0.06,0.71
		c-0.62,0.09-1.09,0.14-1.41,0.14c-0.71,0-1.2-0.17-1.48-0.53c-0.28-0.35-0.41-1.02-0.41-2.01v-3.88h-1.04v-0.74h1.04v-2.2h0.84v2.2
		h2.34V196.72z"/>
</g>
<path fill="#005CE9" d="M457.33,214.1h-193.1c-3.6,0-6.55-2.95-6.55-6.55v-17.24c0-3.6,2.95-6.55,6.55-6.55h193.1
	c3.6,0,6.55,2.95,6.55,6.55v17.24C463.88,211.16,460.93,214.1,457.33,214.1z"/>
<g>
	<rect x="300.98" y="193.1" fill="none" width="118.31" height="11.66"/>
	<path fill="#F2F2F2" d="M304.85,194.26c-1.4,0-2.1,0.53-2.1,1.58c0,0.59,0.16,0.99,0.48,1.21c0.32,0.22,0.98,0.44,1.96,0.66
		c0.98,0.22,1.68,0.5,2.09,0.85c0.41,0.35,0.62,0.93,0.62,1.73c0,1.99-1.03,2.98-3.09,2.98c-0.68,0-1.54-0.08-2.56-0.24l-0.5-0.07
		l0.11-0.9c1.27,0.17,2.23,0.25,2.9,0.25c1.38,0,2.07-0.65,2.07-1.95c0-0.52-0.15-0.9-0.46-1.13s-0.87-0.42-1.7-0.58
		c-1.09-0.23-1.87-0.53-2.32-0.9c-0.46-0.37-0.69-0.99-0.69-1.85c0-1.74,1.04-2.6,3.12-2.6c0.68,0,1.5,0.07,2.45,0.21l0.48,0.07
		l-0.1,0.91C306.31,194.34,305.39,194.26,304.85,194.26z"/>
	<path fill="#F2F2F2" d="M309.27,199.64c0-1.28,0.23-2.2,0.69-2.77c0.46-0.57,1.23-0.85,2.32-0.85c1.09,0,1.86,0.29,2.31,0.85
		c0.45,0.57,0.68,1.49,0.68,2.77s-0.21,2.21-0.64,2.79c-0.43,0.58-1.21,0.87-2.35,0.87s-1.92-0.29-2.35-0.87
		C309.49,201.84,309.27,200.92,309.27,199.64z M310.35,199.62c0,1.02,0.12,1.74,0.37,2.15c0.25,0.41,0.77,0.62,1.55,0.62
		c0.79,0,1.3-0.2,1.55-0.61s0.36-1.12,0.36-2.15c0-1.03-0.14-1.73-0.41-2.12c-0.27-0.39-0.77-0.58-1.5-0.58
		c-0.73,0-1.24,0.19-1.51,0.58C310.49,197.89,310.35,198.59,310.35,199.62z"/>
	<path fill="#F2F2F2" d="M318.31,197.06v6.09h-1.05v-6.09h-0.88v-0.91h0.88v-0.63c0-0.99,0.14-1.66,0.42-2.02
		c0.28-0.36,0.77-0.54,1.47-0.54l1.41,0.1l-0.01,0.87c-0.52-0.02-0.95-0.03-1.29-0.03s-0.58,0.11-0.73,0.34
		c-0.14,0.22-0.22,0.66-0.22,1.3v0.62h2.03v0.91H318.31z"/>
	<path fill="#F2F2F2" d="M325.23,197.06H323v3.35c0,0.8,0.06,1.33,0.17,1.58s0.39,0.38,0.83,0.38l1.25-0.08l0.07,0.87
		c-0.63,0.1-1.1,0.15-1.43,0.15c-0.73,0-1.23-0.18-1.51-0.53c-0.28-0.35-0.42-1.03-0.42-2.03v-3.68h-0.99v-0.91h0.99v-2.14H323v2.14
		h2.23V197.06z"/>
	<path fill="#F2F2F2" d="M325.94,196.15h1.05l1.41,6.09h0.22l1.67-5.95h1.09l1.67,5.95h0.24l1.4-6.09h1.05l-1.67,7h-1.75l-1.48-5.47
		l-1.48,5.47h-1.75L325.94,196.15z"/>
	<path fill="#F2F2F2" d="M342.06,198.27v3.58c0.03,0.35,0.3,0.55,0.81,0.62l-0.04,0.83c-0.74,0-1.29-0.19-1.67-0.56
		c-0.84,0.37-1.68,0.56-2.52,0.56c-0.64,0-1.13-0.18-1.47-0.55c-0.34-0.36-0.5-0.89-0.5-1.57s0.17-1.18,0.52-1.5
		c0.35-0.32,0.89-0.52,1.62-0.6l2.2-0.21v-0.6c0-0.48-0.1-0.82-0.31-1.02c-0.21-0.21-0.49-0.31-0.84-0.31
		c-0.75,0-1.52,0.05-2.32,0.14l-0.43,0.04l-0.04-0.8c1.03-0.21,1.94-0.31,2.73-0.31c0.79,0,1.37,0.18,1.73,0.55
		C341.88,196.92,342.06,197.49,342.06,198.27z M337.75,201.12c0,0.86,0.35,1.29,1.06,1.29c0.63,0,1.26-0.11,1.88-0.32l0.32-0.11
		v-2.31l-2.07,0.2c-0.42,0.04-0.72,0.16-0.91,0.36C337.84,200.43,337.75,200.73,337.75,201.12z"/>
	<path fill="#F2F2F2" d="M344.13,203.15v-7h1.04v0.95c0.81-0.56,1.67-0.93,2.56-1.11v1.06c-0.39,0.08-0.8,0.19-1.23,0.35
		c-0.42,0.16-0.75,0.3-0.97,0.42l-0.35,0.18v5.14H344.13z"/>
	<path fill="#F2F2F2" d="M353.59,202.28l0.41-0.04l0.03,0.83c-1.06,0.15-1.97,0.22-2.73,0.22c-1.01,0-1.72-0.29-2.14-0.88
		c-0.42-0.58-0.63-1.49-0.63-2.72c0-2.45,0.98-3.68,2.93-3.68c0.94,0,1.65,0.26,2.11,0.79c0.47,0.53,0.7,1.36,0.7,2.49l-0.06,0.8
		h-4.62c0,0.77,0.14,1.35,0.42,1.72c0.28,0.37,0.77,0.56,1.46,0.56S352.88,202.34,353.59,202.28z M353.22,199.25
		c0-0.86-0.14-1.47-0.41-1.82c-0.28-0.35-0.72-0.53-1.34-0.53s-1.09,0.19-1.4,0.56c-0.31,0.37-0.47,0.97-0.48,1.79H353.22z"/>
	<path fill="#F2F2F2" d="M362.62,203.15h-3.46v-9.69h3.46c1.58,0,2.62,0.62,3.14,1.88c0.3,0.72,0.45,1.66,0.45,2.83
		c0,2.44-0.61,3.97-1.82,4.61C363.9,203.03,363.31,203.15,362.62,203.15z M365.1,198.17c0-1.86-0.42-3.01-1.25-3.47
		c-0.34-0.19-0.75-0.28-1.23-0.28h-2.38v7.78h2.38C364.28,202.2,365.1,200.86,365.1,198.17z"/>
	<path fill="#F2F2F2" d="M372.77,202.28l0.41-0.04l0.03,0.83c-1.06,0.15-1.97,0.22-2.73,0.22c-1.01,0-1.72-0.29-2.14-0.88
		c-0.42-0.58-0.63-1.49-0.63-2.72c0-2.45,0.98-3.68,2.93-3.68c0.94,0,1.65,0.26,2.11,0.79c0.47,0.53,0.7,1.36,0.7,2.49l-0.06,0.8
		h-4.62c0,0.77,0.14,1.35,0.42,1.72c0.28,0.37,0.77,0.56,1.46,0.56S372.06,202.34,372.77,202.28z M372.4,199.25
		c0-0.86-0.14-1.47-0.41-1.82c-0.28-0.35-0.72-0.53-1.34-0.53s-1.09,0.19-1.4,0.56c-0.31,0.37-0.47,0.97-0.48,1.79H372.4z"/>
	<path fill="#F2F2F2" d="M374.31,196.15h1.12l1.64,6.09h0.52l1.69-6.09h1.08l-1.97,7h-2.1L374.31,196.15z"/>
	<path fill="#F2F2F2" d="M386.34,202.28l0.41-0.04l0.03,0.83c-1.06,0.15-1.97,0.22-2.73,0.22c-1.01,0-1.72-0.29-2.14-0.88
		c-0.42-0.58-0.63-1.49-0.63-2.72c0-2.45,0.98-3.68,2.93-3.68c0.94,0,1.65,0.26,2.11,0.79c0.47,0.53,0.7,1.36,0.7,2.49l-0.06,0.8
		h-4.62c0,0.77,0.14,1.35,0.42,1.72c0.28,0.37,0.77,0.56,1.46,0.56S385.62,202.34,386.34,202.28z M385.96,199.25
		c0-0.86-0.14-1.47-0.41-1.82c-0.28-0.35-0.72-0.53-1.34-0.53s-1.09,0.19-1.4,0.56c-0.31,0.37-0.47,0.97-0.48,1.79H385.96z"/>
	<path fill="#F2F2F2" d="M388.73,203.15V193.1h1.05v10.05H388.73z"/>
	<path fill="#F2F2F2" d="M391.58,199.64c0-1.28,0.23-2.2,0.69-2.77c0.46-0.57,1.23-0.85,2.32-0.85c1.09,0,1.86,0.29,2.31,0.85
		c0.45,0.57,0.68,1.49,0.68,2.77s-0.21,2.21-0.64,2.79c-0.43,0.58-1.21,0.87-2.35,0.87s-1.92-0.29-2.35-0.87
		C391.79,201.84,391.58,200.92,391.58,199.64z M392.65,199.62c0,1.02,0.12,1.74,0.37,2.15c0.25,0.41,0.77,0.62,1.55,0.62
		c0.79,0,1.3-0.2,1.55-0.61s0.36-1.12,0.36-2.15c0-1.03-0.14-1.73-0.41-2.12c-0.27-0.39-0.77-0.58-1.5-0.58
		c-0.73,0-1.24,0.19-1.51,0.58C392.79,197.89,392.65,198.59,392.65,199.62z"/>
	<path fill="#F2F2F2" d="M399.28,206.26v-10.11h1.04v0.5c0.71-0.43,1.41-0.64,2.1-0.64c0.89,0,1.53,0.28,1.93,0.85
		c0.4,0.57,0.6,1.5,0.6,2.79c0,1.3-0.24,2.23-0.71,2.79c-0.47,0.57-1.25,0.85-2.35,0.85c-0.57,0-1.09-0.05-1.57-0.15v3.12H399.28z
		 M402.26,196.95c-0.28,0-0.58,0.05-0.9,0.14c-0.32,0.09-0.58,0.19-0.76,0.28l-0.27,0.14v4.72c0.66,0.1,1.17,0.15,1.51,0.15
		c0.76,0,1.29-0.21,1.59-0.64c0.3-0.43,0.45-1.13,0.45-2.1s-0.14-1.66-0.41-2.07C403.19,197.16,402.79,196.95,402.26,196.95z"/>
	<path fill="#F2F2F2" d="M411.41,202.28l0.41-0.04l0.03,0.83c-1.06,0.15-1.97,0.22-2.73,0.22c-1.01,0-1.72-0.29-2.14-0.88
		c-0.42-0.58-0.63-1.49-0.63-2.72c0-2.45,0.98-3.68,2.93-3.68c0.94,0,1.65,0.26,2.11,0.79c0.47,0.53,0.7,1.36,0.7,2.49l-0.06,0.8
		h-4.62c0,0.77,0.14,1.35,0.42,1.72c0.28,0.37,0.77,0.56,1.46,0.56S410.69,202.34,411.41,202.28z M411.04,199.25
		c0-0.86-0.14-1.47-0.41-1.82c-0.28-0.35-0.72-0.53-1.34-0.53s-1.09,0.19-1.4,0.56c-0.31,0.37-0.47,0.97-0.48,1.79H411.04z"/>
	<path fill="#F2F2F2" d="M413.72,203.15v-7h1.04v0.95c0.81-0.56,1.67-0.93,2.56-1.11v1.06c-0.39,0.08-0.8,0.19-1.23,0.35
		c-0.42,0.16-0.75,0.3-0.97,0.42l-0.35,0.18v5.14H413.72z"/>
</g>
<path fill="#E6E6E6" d="M766.36,110.59c-0.07,0-0.14,0.07-0.21,0.07c-3.78,0-6.85-3.07-6.85-6.85c0-0.59,0.08-1.17,0.22-1.78
	c-1.65-1.3-2.71-3.37-2.71-5.69c0-1.95,0.75-3.73,1.98-5.13c-0.07-0.31-0.11-0.7-0.11-1.1c0-2.3,1.25-4.32,3.11-5.39
	c0-0.07,0-0.14,0-0.21c0-2.61,1.61-4.85,3.9-5.77c0.64-2.76,3.11-4.81,6.06-4.81c2.04,0,3.84,0.98,4.98,2.49
	c1.14-1.51,2.94-2.49,4.98-2.49c2.95,0,5.42,2.05,6.06,4.81c2.29,0.92,3.9,3.16,3.9,5.77c0,0.07-0.07,0.14-0.07,0.21
	c1.93,1.07,3.18,3.09,3.18,5.39c0,0.4-0.04,0.79-0.11,1.1c1.23,1.39,1.98,3.17,1.98,5.13c0,2.32-1.06,4.39-2.71,5.69
	c0.14,0.61,0.22,1.19,0.22,1.78c0,3.78-3.07,6.85-6.85,6.85c-0.07,0-0.14-0.07-0.21-0.07c-1.07,1.93-3.09,3.18-5.39,3.18
	c-2.04,0-3.84-0.98-4.98-2.49c-1.14,1.51-2.94,2.49-4.98,2.49C769.44,113.77,767.43,112.52,766.36,110.59z M771.75,76.43
	c-1.94,0-3.54,1.48-3.72,3.38l-0.08,0.88l-0.86,0.22c-1.62,0.41-2.82,1.88-2.82,3.62c0,0.24,0.02,0.48,0.07,0.72l0.2,1.02
	l-0.98,0.37c-1.41,0.54-2.47,1.91-2.47,3.49c0,0.4,0.14,0.8,0.25,1.1l0.26,0.78l-0.62,0.61c-1.04,0.92-1.76,2.26-1.76,3.74
	c0,1.78,1,3.35,2.42,4.22l0.9,0.57l-0.41,0.98c-0.22,0.51-0.41,1.09-0.41,1.7c0,2.4,2.02,4.36,4.36,4.36c0.33,0,0.58-0.02,0.81-0.06
	l1.01-0.24l0.37,1.02c0.54,1.41,1.9,2.4,3.42,2.4c2.13,0,3.73-1.67,3.73-3.73v-9.96h-3.73c-0.5,0-0.98,0.38-1.13,0.9
	c1.07,0.49,1.75,1.57,1.75,2.83c0,1.72-1.32,3.11-3.11,3.11c-1.65,0-3.11-1.39-3.11-3.11c0-1.28,0.78-2.39,1.95-2.86
	c0.19-1.95,1.78-3.36,3.65-3.36h3.73v-8.71h-2.05c-0.48,1.1-1.58,1.87-2.92,1.87c-1.65,0-3.11-1.39-3.11-3.11s1.46-3.11,3.11-3.11
	c1.35,0,2.44,0.77,2.92,1.87h2.05v-3.73c0-2.06-1.6-3.73-3.73-3.73H771.75z M777.97,101.33h4.61c0.48-1.1,1.58-1.87,2.85-1.87
	c1.72,0,3.11,1.39,3.11,3.11c0,1.72-1.39,3.11-3.11,3.11c-1.28,0-2.37-0.77-2.85-1.87h-4.61v3.73c0,2.06,1.67,3.73,3.73,3.73
	c1.59,0,2.95-1,3.49-2.4l0.37-1.02l1.01,0.24c0.23,0.04,0.48,0.06,0.74,0.06c2.4,0,4.36-1.95,4.36-4.36c0-0.61-0.12-1.18-0.34-1.7
	l-0.42-0.98l0.9-0.57c1.35-0.88,2.35-2.44,2.35-4.29c0-1.42-0.65-2.75-1.69-3.67L791.84,92l0.26-0.78c0.12-0.3,0.19-0.69,0.19-1.17
	c0-1.52-1-2.89-2.4-3.42l-0.97-0.37l0.19-1.02c0.05-0.23,0.07-0.47,0.07-0.79c0-1.67-1.2-3.14-2.82-3.55l-0.86-0.22l-0.08-0.88
	c-0.18-1.9-1.84-3.45-3.72-3.45c-2.06,0-3.73,1.74-3.73,3.73v3.73h3.73c2.06,0,3.73,1.74,3.73,3.73v0.95
	c1.1,0.48,1.87,1.58,1.87,2.78c0,1.79-1.39,3.11-3.11,3.11s-3.11-1.32-3.11-3.11c0-1.21,0.77-2.3,1.87-2.78v-0.95
	c0-0.61-0.56-1.24-1.24-1.24h-3.73V101.33z M770.5,86.39c0.68,0,1.24-0.56,1.24-1.24s-0.56-1.24-1.24-1.24s-1.24,0.56-1.24,1.24
	S769.82,86.39,770.5,86.39z M769.26,102.57c0.68,0,1.24-0.56,1.24-1.24s-0.56-1.24-1.24-1.24s-1.24,0.56-1.24,1.24
	S768.57,102.57,769.26,102.57z M785.44,91.37c0-0.68-0.56-1.24-1.24-1.24s-1.24,0.56-1.24,1.24s0.56,1.24,1.24,1.24
	S785.44,92.05,785.44,91.37z M785.44,103.82c0.68,0,1.24-0.56,1.24-1.24c0-0.68-0.56-1.24-1.24-1.24s-1.24,0.56-1.24,1.24
	C784.19,103.26,784.75,103.82,785.44,103.82z"/>
<path fill="#E6E6E6" d="M857.82,24.34l-9.86,31.77c-0.33,0.87-1.19,1.35-2.05,1.08c-0.87-0.33-1.36-1.19-1.08-2.05l9.86-31.77
	c0.27-0.87,1.19-1.35,2.05-1.08C857.61,22.55,858.1,23.47,857.82,24.34L857.82,24.34z M863.95,30.32l8.77,8.22
	c0.34,0.31,0.52,0.75,0.52,1.14c0,0.51-0.18,0.89-0.52,1.26l-8.77,8.22c-0.66,0.62-1.7,0.59-2.32-0.08
	c-0.62-0.66-0.59-1.7,0.08-2.32l7.48-7.08l-7.48-6.96c-0.66-0.62-0.7-1.66-0.08-2.32C862.25,29.73,863.29,29.7,863.95,30.32
	L863.95,30.32z M840.94,32.72l-7.49,6.96l7.49,7.08c0.66,0.62,0.7,1.66,0.08,2.32c-0.62,0.66-1.66,0.7-2.32,0.08l-8.77-8.22
	c-0.33-0.37-0.52-0.75-0.52-1.26c0-0.39,0.19-0.83,0.52-1.14l8.77-8.22c0.66-0.62,1.7-0.59,2.32,0.08
	C841.64,31.06,841.61,32.09,840.94,32.72L840.94,32.72z"/>
<path fill="#E6E6E6" d="M940.97,87.8h-30.54c-1.47,0-2.66,1.19-2.66,2.66v15.93c0,4.4,3.57,7.97,7.97,7.97h15.93
	c4.4,0,7.97-3.57,7.97-7.97h1.33c5.12,0,9.29-4.17,9.29-9.29C950.27,91.97,946.1,87.8,940.97,87.8z M935.66,106.38
	c0,2.2-1.78,3.98-3.98,3.98h-15.93c-2.2,0-3.98-1.78-3.98-3.98V91.78h23.9V106.38z M940.97,102.4h-1.33V91.78h1.33
	c2.93,0,5.31,2.39,5.31,5.31S943.9,102.4,940.97,102.4z M916.73,80.22c1.03,0.53,1.67,1.72,1.67,2.93c0,1.1,0.89,1.98,1.99,1.98
	s1.99-0.98,1.99-2.01c0-2.6-1.4-5.03-3.64-6.34c-1.03-0.6-1.67-1.71-1.67-2.9c0-1.1-0.89-2-1.99-2c-1.1,0-1.99,0.9-1.99,2
	C913.09,76.48,914.48,78.91,916.73,80.22z M926.03,80.22c1.03,0.53,1.67,1.72,1.67,2.93c0,1.1,0.89,1.98,1.99,1.98
	s1.99-0.98,1.99-2.01c0-2.6-1.4-5.03-3.64-6.34c-1.03-0.6-1.67-1.71-1.67-2.9c0-1.1-0.89-2.01-1.99-2.01s-1.99,0.91-1.99,2.01
	C922.38,76.48,923.78,78.91,926.03,80.22z"/>
<path fill="#E6E6E6" d="M767.31,161l-2.56,0c-3.11,0-5.62,2.53-5.62,5.66v6.18h-3.07c-0.85,0-1.53,0.69-1.53,1.54
	c0,0.85,0.69,1.55,1.53,1.55h3.07v10.3c0,1.42-1.14,2.57-2.56,2.57h-0.51c-0.85,0-1.53,0.69-1.53,1.54c0,0.85,0.69,1.54,1.53,1.54
	h0.51c3.11,0,5.62-2.53,5.62-5.66v-10.3h3.07c0.85,0,1.53-0.69,1.53-1.54c0-0.85-0.69-1.54-1.53-1.54h-3.07v-6.18
	c0-1.42,1.14-2.57,2.56-2.57h2.56c0.85,0,1.53-0.69,1.53-1.54C768.84,161.7,768.16,161,767.31,161z M774.44,169.79
	c-0.73-0.56-1.74-0.38-2.24,0.4c-2.17,3.38-3.36,7.32-3.36,11.41c0,4.04,1.18,8.03,3.36,11.42c0.5,0.77,9.51,0.95,10.24,0.4
	c0.63-0.48-7.22-1.36-7.64-2.03c-1.86-2.9-2.88-6.32-2.88-9.78c0-3.45,1.02-6.88,2.88-9.72
	C775.22,171.15,775.07,170.27,774.44,169.79z M792.08,170.18c-0.5-0.77-1.51-0.95-2.24-0.4c-0.63,0.48-0.78,1.36-0.36,2.03
	c1.86,2.9,2.88,6.32,2.88,9.77c0,3.45-1.02,6.88-2.88,9.72c-0.43,0.67,7.73,1.55,8.36,2.03c0.73,0.56-6.26,0.38-5.76-0.4
	c2.17-3.32,3.36-7.32,3.36-11.36C795.43,177.5,794.25,173.56,792.08,170.18z M786.55,177.09c-0.58-0.58-1.53-0.58-2.05,0l-2.36,2.38
	l-2.36-2.38c-0.58-0.58-1.53-0.58-2.11,0c-0.58,0.58-0.58,1.54,0,2.12l2.36,2.38l-2.36,2.38c-0.58,0.58-0.58,1.54,0,2.12
	c0.58,0.58,1.53,0.58,2.11,0l2.36-2.38l2.36,2.38c0.58,0.58,1.53,0.58,2.05,0c0.58-0.58,0.58-1.54,0-2.12l-2.31-2.39l2.31-2.38
	C787.19,178.63,787.19,177.67,786.55,177.09z"/>
<path fill="#E6E6E6" d="M942.73,190.2v-23.44c0-2.04-1.66-3.7-3.7-3.7h-24.67c-3.4,0-6.17,2.77-6.17,6.17v27.14
	c0,3.4,2.77,6.17,6.17,6.17h26.52c1.02,0,1.85-0.83,1.85-1.85c0-1.02-0.83-1.85-1.85-1.85h-0.62v-5.16
	C941.7,193.16,942.73,191.81,942.73,190.2z M936.56,198.84h-22.21c-1.36,0-2.47-1.11-2.47-2.47s1.11-2.47,2.47-2.47h22.21V198.84z
	 M939.03,190.2h-24.67c-0.88,0-1.71,0.18-2.47,0.52v-21.49c0-1.36,1.11-2.47,2.47-2.47h24.67V190.2z M919.91,175.4h13.57
	c1.03,0,1.85-0.82,1.85-1.85s-0.82-1.85-1.85-1.85h-13.57c-1.02,0-1.85,0.83-1.85,1.85S918.89,175.4,919.91,175.4z M919.91,181.57
	h13.57c1.03,0,1.85-0.82,1.85-1.85s-0.82-1.85-1.85-1.85h-13.57c-1.02,0-1.85,0.83-1.85,1.85S918.89,181.57,919.91,181.57z"/>
<path fill="#E6E6E6" d="M852.79,108.17l0.89,0.96l0.96-0.96c2.68-2.62,6.4-3.81,10.05-3.2c5.52,0.92,9.56,5.7,9.56,11.29v0.46
	c0,3.32-1.38,6.5-3.81,8.77l-14.47,13.51c-0.6,0.56-1.39,0.87-2.22,0.87s-1.62-0.31-2.22-0.87l-14.47-13.51
	c-2.43-2.27-3.81-5.45-3.81-8.77v-0.46c0-5.6,4.05-10.37,9.56-11.29C846.39,104.36,850.18,105.55,852.79,108.17
	C852.72,108.17,852.79,108.17,852.79,108.17L852.79,108.17z M853.68,114.57l-3.6-3.75c-1.74-1.67-4.21-2.46-6.63-2.06
	c-3.66,0.61-6.35,3.79-6.35,7.5v0.46c0,2.26,0.94,4.42,2.59,5.96l14.07,13.14l14.07-13.14c1.65-1.54,2.59-3.7,2.59-5.96v-0.46
	c0-3.72-2.69-6.89-6.35-7.5c-2.43-0.4-4.89,0.39-6.63,2.06L853.68,114.57z"/>
<path fill="#E6E6E6" d="M849.89,218.28c-0.39-0.9-1.87-0.9-2.26,0l-4.33,9.89c-0.27,0.63,0.01,1.35,0.64,1.63
	c0.62,0.28,1.35-0.01,1.63-0.64l0.76-1.73h4.87l0.76,1.73c0.13,0.46,0.65,0.74,1.13,0.74c0.17,0,0.33-0.03,0.49-0.1
	c0.63-0.27,0.91-1,0.64-1.63L849.89,218.28z M847.4,224.95l1.35-3.1l1.35,3.1H847.4z M858.64,217.54c-0.68,0-1.24,0.56-1.24,1.24
	v9.89c0,0.68,0.55,1.24,1.24,1.24c0.68,0,1.24-0.56,1.24-1.24v-9.89C859.88,218.09,859.32,217.54,858.64,217.54z M871,224.95
	c0.68,0,1.24-0.56,1.24-1.24c0-0.68-0.55-1.24-1.24-1.24h-3.71v-4.94H871c0.68,0,1.24-0.56,1.24-1.24c0-0.68-0.55-1.24-1.24-1.24
	h-3.71v-1.24c0-2.73-2.21-4.94-4.94-4.94h-1.24v-3.71c0-0.68-0.56-1.24-1.24-1.24c-0.68,0-1.24,0.55-1.24,1.24v3.71h-4.94v-3.71
	c0-0.68-0.56-1.24-1.24-1.24s-1.24,0.55-1.24,1.24v3.71h-4.94v-3.71c0-0.68-0.56-1.24-1.24-1.24s-1.24,0.55-1.24,1.24v3.71h-1.24
	c-2.73,0-4.94,2.21-4.94,4.94v1.24h-3.71c-0.68,0-1.24,0.56-1.24,1.24c0,0.68,0.55,1.24,1.24,1.24h3.71v4.94h-3.71
	c-0.68,0-1.24,0.56-1.24,1.24c0,0.68,0.55,1.24,1.24,1.24h3.71v4.94h-3.71c-0.68,0-1.24,0.56-1.24,1.24s0.55,1.24,1.24,1.24h3.71
	v1.24c0,2.73,2.21,4.94,4.94,4.94h1.24v3.71c0,0.68,0.56,1.24,1.24,1.24s1.24-0.55,1.24-1.24v-3.71h4.94v3.71
	c0,0.68,0.55,1.24,1.24,1.24s1.24-0.55,1.24-1.24v-3.71h4.94v3.71c0,0.68,0.55,1.24,1.24,1.24c0.68,0,1.24-0.55,1.24-1.24v-3.71
	h1.24c2.73,0,4.94-2.21,4.94-4.94v-1.24H871c0.68,0,1.24-0.55,1.24-1.24c0-0.68-0.55-1.24-1.24-1.24h-3.71v-4.94H871z
	 M864.82,233.61c0,1.36-1.11,2.47-2.47,2.47h-19.78c-1.36,0-2.47-1.11-2.47-2.47v-19.78c0-1.36,1.11-2.47,2.47-2.47h19.78
	c1.36,0,2.47,1.11,2.47,2.47V233.61z"/>
<path fill="#E6E6E6" d="M786.44,259.5c0,2.2-1.74,3.88-3.88,3.88s-3.88-1.68-3.88-3.88c0-2.08,1.74-3.88,3.88-3.88
	S786.44,257.42,786.44,259.5z M782.56,261.16c0.92,0,1.66-0.68,1.66-1.66c0-0.86-0.74-1.66-1.66-1.66s-1.66,0.8-1.66,1.66
	C780.89,260.48,781.64,261.16,782.56,261.16z M781.21,281.44l-7.03,3.51c-0.35,0.17-0.76,0.15-1.08-0.05
	c-0.33-0.2-0.53-0.56-0.53-0.94v-7.95c0-1.72-0.68-3.36-1.89-4.57c-1.21-1.21-2.86-1.89-4.57-1.89h-7.95c-0.38,0-0.74-0.2-0.94-0.53
	c-0.2-0.33-0.22-0.73-0.05-1.08l3.52-7.03c0.75-1.5,2.29-2.52,3.97-2.52h6.74c5.54-9.07,14.04-9.4,19.19-8.45
	c0.81,0.15,1.43,0.78,1.58,1.58c0.96,5.16,0.62,13.66-8.5,19.13v6.81C783.67,279.15,782.72,280.68,781.21,281.44L781.21,281.44z
	 M773.92,272.21c8.48-2.09,12.61-5.85,14.59-9.4c2.04-3.71,2.04-7.72,1.51-10.72c-2.99-0.53-7.01-0.53-10.72,1.51
	c-3.61,1.99-7.31,6.12-9.4,14.59c0.86,0.42,1.66,0.98,2.34,1.67C772.94,270.55,773.51,271.35,773.92,272.21z M774.8,282.16
	l5.43-2.77c0.76-0.32,1.23-1.08,1.23-1.93v-5.55c-1.94,0.94-4.19,1.75-6.82,2.35c0.11,0.61,0.17,1.17,0.17,1.75V282.16z
	 M767.79,267.49c0.66-2.63,1.48-4.94,2.41-6.88h-5.55c-0.84,0-1.61,0.53-1.99,1.29l-2.71,5.43h6.16
	C766.62,267.32,767.25,267.38,767.79,267.49L767.79,267.49z M768.59,282.16c-3.43,3.43-11.51,2.88-11.51,2.88s-0.55-8.14,2.88-11.51
	c2.38-2.38,6.25-2.38,8.63,0S770.98,279.77,768.59,282.16L768.59,282.16z M767.03,275.09c-1.58-1.52-3.98-1.52-5.5,0
	c-1.15,1.15-1.81,3.35-2.09,5.73c-0.09,0.73-0.13,1.41-0.15,2.01c0.6-0.03,1.28-0.07,2-0.15c2.38-0.28,4.58-0.95,5.74-2.09
	C768.54,279.07,768.54,276.61,767.03,275.09L767.03,275.09z"/>
<path fill="#E6E6E6" d="M930.64,271.04c0.21,0.21,0.49,0.32,0.76,0.32c0.28,0,0.55-0.11,0.76-0.32l4.32-4.32
	c0.42-0.42,0.42-1.11,0-1.53l-4.32-4.32c-0.42-0.42-1.11-0.42-1.53,0c-0.42,0.42-0.42,1.11,0,1.53l3.56,3.56l-3.56,3.56
	C930.22,269.93,930.22,270.62,930.64,271.04z M923.53,260.88c-0.42-0.42-1.11-0.42-1.53,0l-4.32,4.32c-0.42,0.42-0.42,1.11,0,1.53
	l4.32,4.32c0.21,0.21,0.49,0.32,0.76,0.32s0.55-0.11,0.76-0.32c0.42-0.42,0.42-1.11,0-1.53l-3.56-3.56l3.56-3.56
	C923.96,261.98,923.96,261.29,923.53,260.88z M910.89,274.59c0.6,0,1.08-0.49,1.08-1.08v-16.19c0-1.19,0.97-2.16,2.16-2.16h25.91
	c1.19,0,2.16,0.97,2.16,2.16v16.19c0,0.6,0.48,1.08,1.08,1.08c0.6,0,1.08-0.48,1.08-1.08v-16.19c0-2.38-1.94-4.32-4.32-4.32h-25.91
	c-2.38,0-4.32,1.94-4.32,4.32v16.19C909.81,274.11,910.3,274.59,910.89,274.59z M947.6,276.75h-41.03c-0.59,0-1.08,0.49-1.08,1.08
	v1.08c0,2.38,1.94,4.32,4.32,4.32h34.55c2.38,0,4.32-1.94,4.32-4.32v-1.08C948.68,277.25,948.19,276.75,947.6,276.75z
	 M944.36,281.07h-34.55c-1.19,0-2.16-0.97-2.16-2.16h38.87C946.52,280.1,945.55,281.07,944.36,281.07z"/>
<g>
</g>
<g>
</g>
<g>
</g>
<g>
</g>
<g>
</g>
<g>
</g>
<g>
</g>
<g>
</g>
<g>
</g>
<g>
</g>
<g>
</g>
<g>
</g>
<g>
</g>
<g>
</g>
<g>
</g>
</svg>
