<?xml version="1.0" encoding="utf-8"?>
<!-- Generator: Adobe Illustrator 26.0.2, SVG Export Plug-In . SVG Version: 6.00 Build 0)  -->
<svg version="1.1" id="Layer_1" xmlns="http://www.w3.org/2000/svg" xmlns:xlink="http://www.w3.org/1999/xlink" x="0px" y="0px"
	 viewBox="0 0 1000 300" style="enable-background:new 0 0 1000 300;" xml:space="preserve">
<style type="text/css">
	.st0{fill:none;}
	.st1{fill:#F2F2F2;}
	.st2{fill:#005CE9;}
	.st3{fill:#E6E6E6;}
</style>
<g>
	<rect x="1.9" y="74.4" class="st0" width="206.7" height="31.3"/>
	<path d="M16,94.1v-8.6H6.4v8.6H4.3V75.2h2.1v8.5H16v-8.5h2.1v18.9L16,94.1L16,94.1z"/>
	<path d="M31.5,92.4l0.8-0.1l0.1,1.6c-2.1,0.3-3.9,0.4-5.3,0.4c-2,0-3.4-0.6-4.2-1.7c-0.8-1.1-1.2-2.9-1.2-5.3
		c0-4.8,1.9-7.2,5.7-7.2c1.8,0,3.2,0.5,4.1,1.5c0.9,1,1.4,2.6,1.4,4.9l-0.1,1.6h-9c0,1.5,0.3,2.6,0.8,3.4c0.5,0.7,1.5,1.1,2.9,1.1
		C28.7,92.6,30.1,92.5,31.5,92.4z M30.8,86.5c0-1.7-0.3-2.9-0.8-3.6c-0.5-0.7-1.4-1-2.6-1c-1.2,0-2.1,0.4-2.7,1.1
		c-0.6,0.7-0.9,1.9-0.9,3.5C23.7,86.5,30.8,86.5,30.8,86.5z"/>
	<path d="M34.5,80.4h2.1L40,92.3h0.9l3.5-11.9h2.1l-5.7,19.7h-2.1l1.8-6.1h-2L34.5,80.4z"/>
	<path d="M54,97.5l1.3-6.3h2.3l-1.8,6.3H54z"/>
	<path d="M69.2,94.1h-2.1V80.4h2v1c1.4-0.8,2.7-1.2,4-1.2c1.7,0,2.9,0.5,3.6,1.4c0.6-0.4,1.4-0.7,2.3-1s1.8-0.4,2.5-0.4
		c1.8,0,3.1,0.5,3.7,1.5c0.6,1,0.9,2.7,0.9,5.3v7.2h-2.1v-7.2c0-1.9-0.2-3.2-0.5-3.9S82.5,82,81.3,82c-0.6,0-1.2,0.1-1.9,0.3
		s-1.1,0.3-1.5,0.5L77.4,83c0.2,0.6,0.4,1.9,0.4,4v7.1h-2v-7c0-2-0.2-3.3-0.5-4c-0.4-0.7-1.1-1.1-2.3-1.1c-0.6,0-1.2,0.1-1.8,0.3
		c-0.6,0.2-1.1,0.3-1.4,0.5L69.2,83C69.2,83,69.2,94.1,69.2,94.1z"/>
	<path d="M88.6,80.4h2.1l3.4,11.9H95l3.5-11.9h2.1l-5.7,19.7h-2.1l1.8-6.1h-2L88.6,80.4z"/>
	<path d="M111.2,94.1h-2.1V80.4h2v1c1.5-0.8,2.9-1.2,4.2-1.2c1.8,0,3.1,0.5,3.7,1.5c0.6,1,0.9,2.7,0.9,5.3v7.2h-2v-7.2
		c0-1.9-0.2-3.2-0.6-3.9c-0.4-0.7-1.2-1.1-2.4-1.1c-0.6,0-1.2,0.1-1.8,0.3c-0.6,0.2-1.1,0.3-1.5,0.5l-0.5,0.2
		C111.2,83,111.2,94.1,111.2,94.1z"/>
	<path d="M133.5,84.5v7c0.1,0.7,0.6,1.1,1.6,1.2l-0.1,1.6c-1.4,0-2.5-0.4-3.3-1.1c-1.6,0.7-3.3,1.1-4.9,1.1c-1.3,0-2.2-0.4-2.9-1.1
		c-0.7-0.7-1-1.7-1-3.1c0-1.3,0.3-2.3,1-2.9c0.7-0.6,1.7-1,3.2-1.2l4.3-0.4v-1.2c0-0.9-0.2-1.6-0.6-2c-0.4-0.4-0.9-0.6-1.6-0.6
		c-1.5,0-3,0.1-4.5,0.3l-0.8,0.1l-0.1-1.6c2-0.4,3.8-0.6,5.3-0.6c1.5,0,2.7,0.4,3.4,1.1C133.1,81.9,133.5,83,133.5,84.5z M125,90.1
		c0,1.7,0.7,2.5,2.1,2.5c1.2,0,2.5-0.2,3.7-0.6l0.6-0.2v-4.5l-4,0.4c-0.8,0.1-1.4,0.3-1.8,0.7C125.2,88.8,125,89.4,125,90.1z"/>
	<path d="M139.6,94.1h-2.1V80.4h2v1c1.4-0.8,2.7-1.2,4-1.2c1.7,0,2.9,0.5,3.6,1.4c0.6-0.4,1.4-0.7,2.3-1s1.8-0.4,2.5-0.4
		c1.8,0,3.1,0.5,3.7,1.5s0.9,2.7,0.9,5.3v7.2h-2.1v-7.2c0-1.9-0.2-3.2-0.5-3.9c-0.4-0.7-1.1-1.1-2.3-1.1c-0.6,0-1.2,0.1-1.9,0.3
		s-1.1,0.3-1.5,0.5l-0.5,0.2c0.2,0.6,0.4,1.9,0.4,4v7.1h-2.1v-7c0-2-0.2-3.3-0.5-4c-0.4-0.7-1.1-1.1-2.3-1.1c-0.6,0-1.2,0.1-1.8,0.3
		s-1.1,0.3-1.4,0.5l-0.5,0.2L139.6,94.1L139.6,94.1z"/>
	<path d="M169.7,92.4l0.8-0.1l0.1,1.6c-2.1,0.3-3.9,0.4-5.3,0.4c-2,0-3.4-0.6-4.2-1.7c-0.8-1.1-1.2-2.9-1.2-5.3
		c0-4.8,1.9-7.2,5.7-7.2c1.8,0,3.2,0.5,4.1,1.5s1.4,2.6,1.4,4.9l-0.1,1.6h-9c0,1.5,0.3,2.6,0.8,3.4c0.5,0.7,1.5,1.1,2.9,1.1
		C166.9,92.6,168.3,92.5,169.7,92.4z M168.9,86.5c0-1.7-0.3-2.9-0.8-3.6c-0.5-0.7-1.4-1-2.6-1c-1.2,0-2.1,0.4-2.7,1.1
		c-0.6,0.7-0.9,1.9-0.9,3.5C161.8,86.5,168.9,86.5,168.9,86.5z"/>
	<path d="M180.2,77.3v-2.4h2.1v2.4L180.2,77.3L180.2,77.3z M180.2,94.1V80.4h2.1v13.7L180.2,94.1L180.2,94.1z"/>
	<path d="M190.5,82c-2,0-3,0.7-3,2.1c0,0.6,0.2,1.1,0.7,1.4c0.5,0.3,1.5,0.5,3.1,0.8c1.6,0.3,2.8,0.7,3.5,1.2c0.7,0.5,1,1.5,1,2.9
		c0,1.4-0.5,2.4-1.4,3.1c-0.9,0.7-2.2,1-4,1c-1.1,0-2.5-0.1-4-0.4l-0.8-0.1l0.1-1.8c2.1,0.3,3.6,0.5,4.7,0.5s1.9-0.2,2.4-0.5
		c0.6-0.3,0.8-0.9,0.8-1.7c0-0.8-0.2-1.3-0.7-1.6c-0.5-0.3-1.5-0.5-3.1-0.8c-1.6-0.3-2.7-0.6-3.4-1.1c-0.7-0.5-1-1.4-1-2.7
		s0.5-2.3,1.4-3c0.9-0.6,2.1-1,3.5-1c1.1,0,2.5,0.1,4.2,0.4l0.8,0.1l-0.1,1.7C193.3,82.1,191.7,82,190.5,82z"/>
</g>
<g>
	<rect x="1.9" y="130.4" class="st0" width="348.4" height="51.2"/>
	<path d="M17.3,136.4c-4.6,0-6.9,1.6-6.9,4.9c0,1.7,0.5,2.9,1.6,3.6c1.1,0.7,3.5,1.6,7.3,2.6c3.7,1,6.4,2.3,7.9,3.7
		c1.5,1.4,2.3,3.7,2.3,6.8c0,3.9-1.1,6.9-3.4,8.8c-2.2,2-5.3,2.9-9.2,2.9c-3.1,0-6.5-0.4-10.3-1.1l-2-0.4l0.6-4.9
		c4.9,0.7,8.7,1,11.3,1c4.5,0,6.8-2,6.8-6c0-1.6-0.5-2.7-1.5-3.5c-1-0.7-3.3-1.6-6.9-2.5c-3.6-0.9-6.2-2.1-8-3.7s-2.6-4-2.6-7.4
		c0-3.4,1.1-6,3.3-7.7c2.2-1.7,5.3-2.6,9.2-2.6c2.8,0,6.1,0.3,10,1l1.9,0.3l-0.5,4.9C23,136.6,19.4,136.4,17.3,136.4z"/>
	<path d="M55.5,150.2v12.5c0,0.8,0.2,1.4,0.6,1.8s1,0.6,1.8,0.7l-0.2,4.5c-3.1,0-5.6-0.7-7.3-2c-2.9,1.4-5.9,2-8.8,2
		c-5.4,0-8.2-2.9-8.2-8.7c0-2.8,0.7-4.8,2.2-6s3.7-2,6.8-2.2l7.1-0.6v-2c0-1.5-0.3-2.5-1-3.1c-0.6-0.6-1.6-0.9-2.8-0.9
		c-2.3,0-5.3,0.1-8.8,0.4l-1.7,0.1l-0.2-4.2c4-0.9,7.6-1.4,11-1.4c3.3,0,5.7,0.7,7.2,2.2C54.8,144.8,55.5,147.1,55.5,150.2z
		 M43.2,157c-2.5,0.2-3.8,1.6-3.8,4.1c0,2.5,1.1,3.8,3.3,3.8c1.8,0,3.8-0.3,5.8-0.9l1-0.3v-7.3L43.2,157z"/>
	<path d="M63.1,168.1v-26.3H69v26.4c0,3.6-0.6,6.2-1.9,7.9c-1.3,1.7-3.8,3.5-7.6,5.5l-2.4-4.4c2.5-1.6,4.2-2.9,4.9-3.9
		C62.7,172.2,63.1,170.5,63.1,168.1z M63.1,137.1v-6.3H69v6.3H63.1z"/>
	<path d="M96.5,150.2v12.5c0,0.8,0.2,1.4,0.6,1.8s1,0.6,1.8,0.7l-0.2,4.5c-3.1,0-5.6-0.7-7.3-2c-2.9,1.4-5.9,2-8.8,2
		c-5.4,0-8.2-2.9-8.2-8.7c0-2.8,0.7-4.8,2.2-6s3.7-2,6.8-2.2l7.1-0.6v-2c0-1.5-0.3-2.5-1-3.1c-0.6-0.6-1.6-0.9-2.8-0.9
		c-2.3,0-5.3,0.1-8.8,0.4l-1.7,0.1l-0.2-4.2c4-0.9,7.6-1.4,11-1.4s5.7,0.7,7.2,2.2C95.8,144.8,96.5,147.1,96.5,150.2z M84.2,157
		c-2.5,0.2-3.8,1.6-3.8,4.1c0,2.5,1.1,3.8,3.3,3.8c1.8,0,3.8-0.3,5.8-0.9l1-0.3v-7.3L84.2,157z"/>
	<path d="M126.3,130.4v38.7h-5.9v-1.4c-2.7,1.4-5.1,2-7.3,2c-3.6,0-6.2-1.1-7.9-3.2c-1.7-2.2-2.5-5.8-2.5-10.8
		c0-5.1,0.9-8.8,2.8-11.1c1.8-2.3,4.7-3.5,8.6-3.5c1.3,0,3.4,0.2,6.2,0.7v-11.5L126.3,130.4L126.3,130.4z M119.4,163.4l0.9-0.4
		v-16.2c-2.2-0.4-4.2-0.5-6.1-0.5c-3.7,0-5.5,3.1-5.5,9.2c0,3.4,0.4,5.7,1.3,7c0.9,1.3,2.2,1.9,4.1,1.9
		C116,164.4,117.7,164.1,119.4,163.4z"/>
	<path d="M152.4,169.1h-6.1v-37.5h6.1v16.9l5.6-0.4l7.7-16.5h6.9l-9.2,18.8l9.6,18.7h-7.1l-7.9-15.7l-5.6,0.4V169.1z"/>
	<path d="M178.1,144.7c1.9-2.4,5-3.6,9.4-3.6s7.5,1.2,9.4,3.6c1.9,2.4,2.8,5.9,2.8,10.7s-0.9,8.3-2.7,10.7c-1.8,2.4-5,3.6-9.5,3.6
		s-7.6-1.2-9.5-3.6s-2.7-6-2.7-10.7C175.3,150.7,176.2,147.1,178.1,144.7z M182.6,162.5c0.8,1.5,2.5,2.2,4.9,2.2s4.1-0.7,4.9-2.2
		c0.8-1.5,1.3-3.8,1.3-7.2c0-3.3-0.5-5.7-1.3-7.1s-2.5-2.1-4.8-2.1c-2.3,0-3.9,0.7-4.8,2.1c-0.9,1.4-1.3,3.7-1.3,7.1
		C181.3,158.7,181.7,161.1,182.6,162.5z"/>
	<path d="M205.9,169.1v-38.7h6v38.7H205.9z"/>
	<path d="M239.7,150.2v12.5c0,0.8,0.2,1.4,0.6,1.8s1,0.6,1.8,0.7l-0.2,4.5c-3.1,0-5.6-0.7-7.3-2c-2.9,1.4-5.9,2-8.8,2
		c-5.4,0-8.2-2.9-8.2-8.7c0-2.8,0.7-4.8,2.2-6c1.5-1.2,3.7-2,6.8-2.2l7.1-0.6v-2c0-1.5-0.3-2.5-1-3.1c-0.6-0.6-1.6-0.9-2.8-0.9
		c-2.3,0-5.3,0.1-8.8,0.4l-1.7,0.1l-0.2-4.2c4-0.9,7.6-1.4,11-1.4s5.7,0.7,7.2,2.2C239,144.8,239.7,147.1,239.7,150.2z M227.4,157
		c-2.5,0.2-3.8,1.6-3.8,4.1c0,2.5,1.1,3.8,3.3,3.8c1.8,0,3.8-0.3,5.8-0.9l1-0.3v-7.3L227.4,157z"/>
	<path d="M253.2,169.1h-6v-38.7h6v12.8c2.7-1.4,5.2-2,7.5-2c3.6,0,6.1,1,7.5,3.1c1.3,2.1,2,5.5,2,10.2v14.7h-6v-14.5
		c0-3-0.3-5.1-0.9-6.3c-0.6-1.2-1.9-1.9-3.9-1.9c-1.7,0-3.5,0.3-5.3,0.9l-0.9,0.3L253.2,169.1L253.2,169.1z"/>
	<path d="M287.3,141.2c1.9,0,4.2,0.3,6.8,0.8l1.4,0.3l-0.2,4.7c-2.9-0.3-5-0.4-6.4-0.4c-2.8,0-4.6,0.6-5.6,1.9
		c-0.9,1.2-1.4,3.6-1.4,7c0,3.4,0.5,5.8,1.4,7.1s2.8,2,5.7,2l6.4-0.4l0.2,4.8c-3.7,0.7-6.5,1-8.3,1c-4.2,0-7.1-1.1-8.8-3.4
		c-1.7-2.2-2.5-5.9-2.5-11c0-5.1,0.9-8.7,2.7-10.9C280.3,142.3,283.3,141.2,287.3,141.2z"/>
	<path d="M307.2,169.1h-6v-38.7h6v12.8c2.7-1.4,5.2-2,7.5-2c3.6,0,6.1,1,7.5,3.1c1.3,2.1,2,5.5,2,10.2v14.7h-6v-14.5
		c0-3-0.3-5.1-0.9-6.3c-0.6-1.2-1.9-1.9-3.9-1.9c-1.7,0-3.5,0.3-5.3,0.9l-0.9,0.3L307.2,169.1L307.2,169.1z"/>
	<path d="M331.1,137.1v-6.3h6v6.3H331.1z M331.1,169.1v-27.4h6v27.4H331.1z"/>
</g>
<path class="st1" d="M251.2,248.1H9.1c-4,0-7.2-3.2-7.2-7.2v-23.3c0-4,3.2-7.2,7.2-7.2h242.1c4,0,7.2,3.2,7.2,7.2v23.3
	C258.4,244.9,255.2,248.1,251.2,248.1z"/>
<g>
	<rect x="8.4" y="221.7" class="st0" width="242" height="18.7"/>
	<path d="M42.1,234.1c-1.2,0.2-2.2,0.4-3.1,0.4s-1.5-0.1-2-0.3c-0.5-0.2-0.9-0.4-1.3-0.8c-0.3-0.3-0.6-0.7-0.8-1.3
		c-0.4-1-0.5-2.2-0.5-3.9c0-2.6,0.4-4.4,1.3-5.2c0.7-0.7,1.7-1.1,3.1-1.1c1,0,2.1,0.1,3.3,0.4l-0.1,0.9c-1.2-0.2-2.2-0.3-2.9-0.3
		c-0.7,0-1.3,0.1-1.7,0.2c-0.4,0.2-0.7,0.4-1,0.6s-0.4,0.6-0.6,1.1c-0.2,0.8-0.4,1.8-0.4,3s0,2.1,0.1,2.7c0.1,0.6,0.2,1.1,0.5,1.6
		c0.2,0.5,0.6,0.8,1,1s1.1,0.3,1.9,0.3s1.8-0.1,3-0.3L42.1,234.1z"/>
	<path d="M43.6,229.9c0-1.6,0.3-2.8,0.8-3.5s1.5-1,2.8-1s2.3,0.3,2.8,1c0.6,0.7,0.8,1.8,0.8,3.5c0,1.6-0.3,2.8-0.8,3.5
		c-0.5,0.7-1.5,1-2.9,1c-1.4,0-2.4-0.4-2.9-1C43.8,232.7,43.6,231.6,43.6,229.9z M44.7,229.9c0,1.4,0.2,2.3,0.5,2.9
		c0.3,0.5,1,0.8,2.1,0.8s1.8-0.3,2.1-0.8c0.3-0.5,0.5-1.5,0.5-2.8s-0.2-2.3-0.5-2.8s-1-0.8-2-0.8c-1,0-1.7,0.3-2,0.7
		C44.8,227.6,44.7,228.5,44.7,229.9z"/>
	<path d="M54.1,234.3h-1v-8.7h1v0.6c0.9-0.5,1.8-0.8,2.8-0.8s1.7,0.3,2.1,0.9c0.4-0.3,0.9-0.5,1.5-0.6c0.6-0.2,1.1-0.3,1.6-0.3
		c1.2,0,1.9,0.3,2.3,0.9c0.4,0.6,0.6,1.7,0.6,3.4v4.6h-1v-4.5c0-1.3-0.1-2.2-0.4-2.7c-0.3-0.5-0.8-0.7-1.6-0.7
		c-0.4,0-0.8,0.1-1.3,0.2c-0.4,0.1-0.8,0.2-1,0.4l-0.4,0.2c0.2,0.4,0.3,1.3,0.3,2.7v4.5h-1v-4.5c0-1.4-0.1-2.3-0.4-2.7
		s-0.8-0.7-1.6-0.7c-0.4,0-0.8,0.1-1.2,0.2c-0.4,0.1-0.7,0.2-1,0.4l-0.3,0.2C54.1,227.1,54.1,234.3,54.1,234.3z"/>
	<path d="M67.7,238.2v-12.6h1v0.7c0.9-0.6,1.9-0.8,2.9-0.8s1.7,0.4,2.2,1.1c0.5,0.7,0.7,1.9,0.7,3.5c0,1.6-0.3,2.7-0.9,3.5
		c-0.6,0.7-1.5,1.1-2.9,1.1c-0.7,0-1.4-0.1-2.1-0.2v4L67.7,238.2L67.7,238.2z M71.3,226.4c-0.4,0-0.8,0.1-1.2,0.2
		c-0.4,0.1-0.8,0.3-1,0.4l-0.4,0.2v6.2c0.8,0.1,1.5,0.2,2.1,0.2c1,0,1.7-0.3,2.1-0.8c0.4-0.6,0.6-1.5,0.6-2.8s-0.2-2.2-0.5-2.7
		C72.6,226.6,72,226.4,71.3,226.4z"/>
	<path d="M82.3,225.6h1v8.7h-1v-0.6c-0.9,0.5-1.8,0.8-2.7,0.8c-1.2,0-2-0.3-2.3-0.9c-0.4-0.6-0.6-1.7-0.6-3.4v-4.5h1v4.5
		c0,1.3,0.1,2.3,0.4,2.7c0.3,0.5,0.8,0.7,1.6,0.7c0.4,0,0.8-0.1,1.3-0.2s0.8-0.2,1-0.4l0.3-0.2L82.3,225.6L82.3,225.6z"/>
	<path d="M90.3,226.5h-2.9v4.3c0,1.1,0.1,1.9,0.2,2.2c0.2,0.4,0.5,0.5,1.2,0.5l1.6-0.1l0.1,0.9c-0.8,0.1-1.4,0.2-1.8,0.2
		c-0.9,0-1.5-0.2-1.8-0.6c-0.3-0.4-0.5-1.3-0.5-2.5v-4.8h-1.3v-0.9h1.3v-2.7h1v2.7h2.9V226.5z"/>
	<path d="M97.7,233.4l0.5-0.1l0,0.9c-1.3,0.2-2.4,0.2-3.3,0.2c-1.3,0-2.1-0.4-2.6-1.1c-0.5-0.7-0.7-1.9-0.7-3.4c0-3,1.2-4.6,3.6-4.6
		c1.2,0,2,0.3,2.6,1c0.6,0.7,0.9,1.7,0.9,3.1l0,0.8h-5.9c0,1.1,0.2,1.9,0.5,2.4s1,0.8,1.9,0.8S96.8,233.5,97.7,233.4z M92.6,229.5
		h4.9c0-1.2-0.2-2-0.6-2.5c-0.4-0.5-1-0.7-1.8-0.7s-1.5,0.3-1.9,0.8C92.8,227.6,92.6,228.4,92.6,229.5z"/>
	<path d="M100.7,234.3v-8.7h1v1.3c0.4-0.3,1-0.6,1.6-0.9c0.6-0.3,1.2-0.5,1.7-0.6v1c-0.5,0.1-1,0.3-1.6,0.5c-0.5,0.2-1,0.4-1.3,0.6
		l-0.5,0.3v6.5L100.7,234.3L100.7,234.3z"/>
	<path d="M113.9,223c-1.9,0-2.8,0.7-2.8,2.1c0,0.8,0.2,1.4,0.6,1.7c0.4,0.3,1.3,0.6,2.5,0.8c1.2,0.2,2.1,0.6,2.6,1s0.8,1.2,0.8,2.2
		c0,1.3-0.3,2.2-1,2.8c-0.6,0.6-1.6,0.9-2.8,0.9c-0.9,0-2-0.1-3.2-0.2l-0.6-0.1l0.1-0.9c1.6,0.2,2.8,0.3,3.7,0.3
		c0.9,0,1.5-0.2,2-0.6c0.5-0.4,0.7-1,0.7-1.9c0-0.8-0.2-1.4-0.6-1.7c-0.4-0.3-1-0.5-1.9-0.7c-0.9-0.2-1.5-0.3-1.9-0.4
		c-0.4-0.1-0.8-0.3-1.1-0.6c-0.4-0.3-0.6-0.6-0.8-1c-0.2-0.4-0.2-0.9-0.2-1.5c0-2.1,1.3-3.2,3.8-3.2c0.8,0,1.8,0.1,3,0.2l0.6,0.1
		l-0.1,0.9C115.7,223.1,114.6,223,113.9,223z"/>
	<path d="M123.1,225.4c0.5,0,1.1,0.1,1.9,0.2l0.4,0.1l-0.1,0.9c-0.9-0.1-1.6-0.2-2-0.2c-1,0-1.7,0.3-2.1,0.8
		c-0.4,0.5-0.6,1.4-0.6,2.8c0,1.4,0.2,2.3,0.5,2.8c0.4,0.5,1.1,0.8,2.2,0.8l2.1-0.2l0,0.9c-1,0.1-1.8,0.2-2.3,0.2
		c-1.4,0-2.3-0.3-2.8-1c-0.5-0.7-0.8-1.9-0.8-3.5s0.3-2.8,0.8-3.5C120.9,225.7,121.8,225.4,123.1,225.4z"/>
	<path d="M127.4,223.4v-1.3h1v1.3H127.4z M127.4,234.3v-8.7h1v8.7H127.4z"/>
	<path d="M136.8,233.4l0.5-0.1l0,0.9c-1.3,0.2-2.4,0.2-3.3,0.2c-1.3,0-2.1-0.4-2.6-1.1c-0.5-0.7-0.7-1.9-0.7-3.4
		c0-3,1.2-4.6,3.6-4.6c1.2,0,2,0.3,2.6,1c0.6,0.7,0.9,1.7,0.9,3.1l0,0.8h-5.9c0,1.1,0.2,1.9,0.5,2.4s1,0.8,1.9,0.8
		S135.9,233.5,136.8,233.4z M131.7,229.5h4.9c0-1.2-0.2-2-0.6-2.5c-0.4-0.5-1-0.7-1.8-0.7s-1.5,0.3-1.9,0.8
		C131.9,227.6,131.7,228.4,131.7,229.5z"/>
	<path d="M140.9,234.3h-1v-8.7h1v0.6c1-0.5,1.9-0.8,2.8-0.8c1.2,0,1.9,0.3,2.3,0.9c0.4,0.6,0.6,1.7,0.6,3.4v4.6h-1v-4.5
		c0-1.3-0.1-2.2-0.4-2.7c-0.3-0.5-0.8-0.7-1.6-0.7c-0.4,0-0.8,0.1-1.3,0.2c-0.5,0.1-0.8,0.2-1,0.4l-0.4,0.2L140.9,234.3L140.9,234.3
		z"/>
	<path d="M152.3,225.4c0.5,0,1.1,0.1,1.9,0.2l0.4,0.1l-0.1,0.9c-0.9-0.1-1.6-0.2-2-0.2c-1,0-1.7,0.3-2.1,0.8
		c-0.4,0.5-0.6,1.4-0.6,2.8c0,1.4,0.2,2.3,0.5,2.8c0.4,0.5,1.1,0.8,2.2,0.8l2.1-0.2l0,0.9c-1,0.1-1.8,0.2-2.3,0.2
		c-1.4,0-2.3-0.3-2.8-1c-0.5-0.7-0.8-1.9-0.8-3.5s0.3-2.8,0.8-3.5C150.1,225.7,151,225.4,152.3,225.4z"/>
	<path d="M162.3,233.4l0.5-0.1l0,0.9c-1.3,0.2-2.4,0.2-3.3,0.2c-1.3,0-2.1-0.4-2.6-1.1c-0.5-0.7-0.7-1.9-0.7-3.4
		c0-3,1.2-4.6,3.6-4.6c1.2,0,2,0.3,2.6,1c0.6,0.7,0.9,1.7,0.9,3.1l0,0.8h-5.9c0,1.1,0.2,1.9,0.5,2.4s1,0.8,1.9,0.8
		C160.5,233.5,161.4,233.5,162.3,233.4z M157.2,229.5h4.9c0-1.2-0.2-2-0.6-2.5s-1-0.7-1.8-0.7c-0.8,0-1.5,0.3-1.9,0.8
		C157.4,227.6,157.2,228.4,157.2,229.5z"/>
	<path d="M172.6,223c-1.9,0-2.8,0.7-2.8,2.1c0,0.8,0.2,1.4,0.6,1.7c0.4,0.3,1.3,0.6,2.5,0.8c1.2,0.2,2.1,0.6,2.6,1s0.8,1.2,0.8,2.2
		c0,1.3-0.3,2.2-1,2.8c-0.6,0.6-1.6,0.9-2.8,0.9c-0.9,0-2-0.1-3.2-0.2l-0.6-0.1l0.1-0.9c1.6,0.2,2.8,0.3,3.7,0.3
		c0.9,0,1.5-0.2,2-0.6c0.5-0.4,0.7-1,0.7-1.9c0-0.8-0.2-1.4-0.6-1.7c-0.4-0.3-1-0.5-1.9-0.7c-0.9-0.2-1.5-0.3-1.9-0.4
		s-0.8-0.3-1.1-0.6c-0.4-0.3-0.6-0.6-0.8-1c-0.2-0.4-0.2-0.9-0.2-1.5c0-2.1,1.3-3.2,3.8-3.2c0.8,0,1.8,0.1,3,0.2l0.6,0.1l-0.1,0.9
		C174.4,223.1,173.3,223,172.6,223z"/>
	<path d="M182.8,226.5h-2.9v4.3c0,1.1,0.1,1.9,0.2,2.2c0.2,0.4,0.5,0.5,1.2,0.5l1.6-0.1l0.1,0.9c-0.8,0.1-1.4,0.2-1.8,0.2
		c-0.9,0-1.5-0.2-1.8-0.6c-0.3-0.4-0.5-1.3-0.5-2.5v-4.8h-1.3v-0.9h1.3v-2.7h1v2.7h2.9V226.5z"/>
	<path d="M189.9,225.6h1v8.7h-1v-0.6c-0.9,0.5-1.8,0.8-2.7,0.8c-1.2,0-2-0.3-2.3-0.9c-0.4-0.6-0.6-1.7-0.6-3.4v-4.5h1v4.5
		c0,1.3,0.1,2.3,0.4,2.7c0.3,0.5,0.8,0.7,1.6,0.7c0.4,0,0.8-0.1,1.3-0.2c0.4-0.1,0.8-0.2,1-0.4l0.3-0.2L189.9,225.6L189.9,225.6z"/>
	<path d="M200.1,221.7v12.6h-1v-0.6c-0.9,0.5-1.8,0.8-2.8,0.8c-0.4,0-0.8,0-1.1-0.1c-0.3-0.1-0.6-0.3-1-0.6c-0.7-0.6-1-1.7-1-3.5
		c0-1.7,0.3-3,0.8-3.7c0.6-0.7,1.5-1.1,2.8-1.1c0.5,0,1.2,0.1,2.2,0.2v-3.9L200.1,221.7L200.1,221.7z M195.6,233.4
		c0.2,0.1,0.5,0.1,0.8,0.1c0.3,0,0.7-0.1,1.2-0.2c0.5-0.1,0.8-0.3,1.1-0.4l0.4-0.2v-6.2c-0.9-0.1-1.6-0.2-2.2-0.2
		c-1,0-1.7,0.3-2,0.9c-0.4,0.6-0.6,1.5-0.6,2.8c0,1.5,0.2,2.5,0.7,2.9C195.1,233.2,195.4,233.3,195.6,233.4z"/>
	<path d="M208.4,233.4l0.5-0.1l0,0.9c-1.3,0.2-2.4,0.2-3.3,0.2c-1.3,0-2.1-0.4-2.6-1.1c-0.5-0.7-0.7-1.9-0.7-3.4
		c0-3,1.2-4.6,3.6-4.6c1.2,0,2,0.3,2.6,1c0.6,0.7,0.9,1.7,0.9,3.1l0,0.8h-5.9c0,1.1,0.2,1.9,0.5,2.4c0.4,0.5,1,0.8,1.9,0.8
		S207.5,233.5,208.4,233.4z M203.3,229.5h4.9c0-1.2-0.2-2-0.6-2.5s-1-0.7-1.8-0.7c-0.8,0-1.5,0.3-1.9,0.8
		C203.6,227.6,203.3,228.4,203.3,229.5z"/>
	<path d="M212.5,234.3h-1v-8.7h1v0.6c1-0.5,1.9-0.8,2.8-0.8c1.2,0,1.9,0.3,2.3,0.9c0.4,0.6,0.6,1.7,0.6,3.4v4.6h-1v-4.5
		c0-1.3-0.1-2.2-0.4-2.7c-0.3-0.5-0.8-0.7-1.6-0.7c-0.4,0-0.8,0.1-1.3,0.2c-0.5,0.1-0.8,0.2-1,0.4l-0.4,0.2L212.5,234.3L212.5,234.3
		z"/>
	<path d="M225,226.5h-2.9v4.3c0,1.1,0.1,1.9,0.2,2.2c0.2,0.4,0.5,0.5,1.2,0.5l1.6-0.1l0.1,0.9c-0.8,0.1-1.4,0.2-1.8,0.2
		c-0.9,0-1.5-0.2-1.8-0.6c-0.3-0.4-0.5-1.3-0.5-2.5v-4.8h-1.3v-0.9h1.3v-2.7h1v2.7h2.9V226.5z"/>
</g>
<path class="st2" d="M525.7,248.1H283.7c-4,0-7.2-3.2-7.2-7.2v-23.3c0-4,3.2-7.2,7.2-7.2h242.1c4,0,7.2,3.2,7.2,7.2v23.3
	C532.9,244.9,529.7,248.1,525.7,248.1z"/>
<g>
	<rect x="330.3" y="222" class="st0" width="147.1" height="14.5"/>
	<path class="st1" d="M335.1,223.5c-1.7,0-2.6,0.7-2.6,2c0,0.7,0.2,1.2,0.6,1.5c0.4,0.3,1.2,0.5,2.4,0.8c1.2,0.3,2.1,0.6,2.6,1.1
		c0.5,0.4,0.8,1.2,0.8,2.2c0,2.5-1.3,3.7-3.8,3.7c-0.8,0-1.9-0.1-3.2-0.3l-0.6-0.1l0.1-1.1c1.6,0.2,2.8,0.3,3.6,0.3
		c1.7,0,2.6-0.8,2.6-2.4c0-0.6-0.2-1.1-0.6-1.4c-0.4-0.3-1.1-0.5-2.1-0.7c-1.4-0.3-2.3-0.7-2.9-1.1c-0.6-0.5-0.9-1.2-0.9-2.3
		c0-2.2,1.3-3.2,3.9-3.2c0.8,0,1.9,0.1,3,0.3l0.6,0.1l-0.1,1.1C337,223.6,335.8,223.5,335.1,223.5z"/>
	<path class="st1" d="M340.6,230.1c0-1.6,0.3-2.7,0.9-3.5c0.6-0.7,1.5-1.1,2.9-1.1c1.4,0,2.3,0.4,2.9,1.1c0.6,0.7,0.8,1.9,0.8,3.5
		s-0.3,2.7-0.8,3.5c-0.5,0.7-1.5,1.1-2.9,1.1s-2.4-0.4-2.9-1.1C340.9,232.9,340.6,231.7,340.6,230.1z M342,230.1
		c0,1.3,0.2,2.2,0.5,2.7s1,0.8,1.9,0.8c1,0,1.6-0.3,1.9-0.8c0.3-0.5,0.5-1.4,0.5-2.7s-0.2-2.2-0.5-2.6c-0.3-0.5-1-0.7-1.9-0.7
		c-0.9,0-1.5,0.2-1.9,0.7C342.1,228,342,228.8,342,230.1z"/>
	<path class="st1" d="M351.9,226.9v7.6h-1.3v-7.6h-1.1v-1.1h1.1V225c0-1.2,0.2-2.1,0.5-2.5c0.4-0.5,1-0.7,1.8-0.7l1.8,0.1l0,1.1
		c-0.6,0-1.2,0-1.6,0s-0.7,0.1-0.9,0.4c-0.2,0.3-0.3,0.8-0.3,1.6v0.8h2.5v1.1H351.9z"/>
	<path class="st1" d="M360.5,226.9h-2.8v4.2c0,1,0.1,1.7,0.2,2c0.1,0.3,0.5,0.5,1,0.5l1.5-0.1l0.1,1.1c-0.8,0.1-1.4,0.2-1.8,0.2
		c-0.9,0-1.5-0.2-1.9-0.7c-0.4-0.4-0.5-1.3-0.5-2.5v-4.6h-1.2v-1.1h1.2v-2.7h1.3v2.7h2.8L360.5,226.9L360.5,226.9z"/>
	<path class="st1" d="M361.4,225.8h1.3l1.8,7.6h0.3l2.1-7.4h1.4l2.1,7.4h0.3l1.7-7.6h1.3l-2.1,8.7h-2.2l-1.8-6.8l-1.8,6.8h-2.2
		L361.4,225.8z"/>
	<path class="st1" d="M381.4,228.4v4.5c0,0.4,0.4,0.7,1,0.8l-0.1,1c-0.9,0-1.6-0.2-2.1-0.7c-1,0.5-2.1,0.7-3.1,0.7
		c-0.8,0-1.4-0.2-1.8-0.7c-0.4-0.5-0.6-1.1-0.6-1.9s0.2-1.5,0.6-1.9c0.4-0.4,1.1-0.6,2-0.7l2.7-0.3v-0.7c0-0.6-0.1-1-0.4-1.3
		c-0.3-0.3-0.6-0.4-1-0.4c-0.9,0-1.9,0.1-2.9,0.2l-0.5,0.1l-0.1-1c1.3-0.3,2.4-0.4,3.4-0.4s1.7,0.2,2.2,0.7
		C381.2,226.8,381.4,227.5,381.4,228.4z M376,232c0,1.1,0.4,1.6,1.3,1.6c0.8,0,1.6-0.1,2.3-0.4l0.4-0.1v-2.9l-2.6,0.2
		c-0.5,0-0.9,0.2-1.1,0.5C376.2,231.1,376,231.5,376,232z"/>
	<path class="st1" d="M384,234.5v-8.7h1.3v1.2c1-0.7,2.1-1.2,3.2-1.4v1.3c-0.5,0.1-1,0.2-1.5,0.4c-0.5,0.2-0.9,0.4-1.2,0.5l-0.4,0.2
		v6.4H384z"/>
	<path class="st1" d="M395.8,233.4l0.5-0.1l0,1c-1.3,0.2-2.5,0.3-3.4,0.3c-1.3,0-2.1-0.4-2.7-1.1c-0.5-0.7-0.8-1.9-0.8-3.4
		c0-3.1,1.2-4.6,3.6-4.6c1.2,0,2,0.3,2.6,1c0.6,0.7,0.9,1.7,0.9,3.1l-0.1,1h-5.7c0,1,0.2,1.7,0.5,2.1c0.4,0.5,1,0.7,1.8,0.7
		C394,233.5,394.9,233.5,395.8,233.4z M395.3,229.7c0-1.1-0.2-1.8-0.5-2.3c-0.3-0.4-0.9-0.7-1.7-0.7c-0.8,0-1.4,0.2-1.7,0.7
		c-0.4,0.5-0.6,1.2-0.6,2.2H395.3z"/>
	<path class="st1" d="M407,234.5h-4.3v-12h4.3c2,0,3.3,0.8,3.9,2.3c0.4,0.9,0.6,2.1,0.6,3.5c0,3-0.8,4.9-2.3,5.7
		C408.6,234.4,407.9,234.5,407,234.5z M410.1,228.3c0-2.3-0.5-3.7-1.5-4.3c-0.4-0.2-0.9-0.4-1.5-0.4h-3v9.7h3
		C409,233.3,410.1,231.7,410.1,228.3z"/>
	<path class="st1" d="M419.6,233.4l0.5-0.1l0,1c-1.3,0.2-2.5,0.3-3.4,0.3c-1.3,0-2.1-0.4-2.7-1.1c-0.5-0.7-0.8-1.9-0.8-3.4
		c0-3.1,1.2-4.6,3.6-4.6c1.2,0,2,0.3,2.6,1c0.6,0.7,0.9,1.7,0.9,3.1l-0.1,1h-5.7c0,1,0.2,1.7,0.5,2.1c0.4,0.5,1,0.7,1.8,0.7
		C417.8,233.5,418.7,233.5,419.6,233.4z M419.1,229.7c0-1.1-0.2-1.8-0.5-2.3c-0.3-0.4-0.9-0.7-1.7-0.7c-0.8,0-1.4,0.2-1.7,0.7
		c-0.4,0.5-0.6,1.2-0.6,2.2H419.1z"/>
	<path class="st1" d="M421.5,225.8h1.4l2,7.6h0.6l2.1-7.6h1.3l-2.5,8.7H424L421.5,225.8z"/>
	<path class="st1" d="M436.5,233.4l0.5-0.1l0,1c-1.3,0.2-2.5,0.3-3.4,0.3c-1.3,0-2.1-0.4-2.7-1.1c-0.5-0.7-0.8-1.9-0.8-3.4
		c0-3.1,1.2-4.6,3.6-4.6c1.2,0,2,0.3,2.6,1c0.6,0.7,0.9,1.7,0.9,3.1l-0.1,1h-5.7c0,1,0.2,1.7,0.5,2.1c0.4,0.5,1,0.7,1.8,0.7
		C434.7,233.5,435.6,233.5,436.5,233.4z M436,229.7c0-1.1-0.2-1.8-0.5-2.3c-0.3-0.4-0.9-0.7-1.7-0.7c-0.8,0-1.4,0.2-1.7,0.7
		c-0.4,0.5-0.6,1.2-0.6,2.2H436z"/>
	<path class="st1" d="M439.5,234.5V222h1.3v12.5H439.5z"/>
	<path class="st1" d="M443,230.1c0-1.6,0.3-2.7,0.9-3.5c0.6-0.7,1.5-1.1,2.9-1.1s2.3,0.4,2.9,1.1c0.6,0.7,0.8,1.9,0.8,3.5
		s-0.3,2.7-0.8,3.5c-0.5,0.7-1.5,1.1-2.9,1.1s-2.4-0.4-2.9-1.1C443.3,232.9,443,231.7,443,230.1z M444.3,230.1
		c0,1.3,0.2,2.2,0.5,2.7s1,0.8,1.9,0.8c1,0,1.6-0.3,1.9-0.8c0.3-0.5,0.5-1.4,0.5-2.7s-0.2-2.2-0.5-2.6c-0.3-0.5-1-0.7-1.9-0.7
		c-0.9,0-1.5,0.2-1.9,0.7C444.5,228,444.3,228.8,444.3,230.1z"/>
	<path class="st1" d="M452.6,238.4v-12.6h1.3v0.6c0.9-0.5,1.7-0.8,2.6-0.8c1.1,0,1.9,0.4,2.4,1.1s0.7,1.9,0.7,3.5s-0.3,2.8-0.9,3.5
		c-0.6,0.7-1.6,1.1-2.9,1.1c-0.7,0-1.4-0.1-1.9-0.2v3.9L452.6,238.4L452.6,238.4z M456.3,226.8c-0.4,0-0.7,0.1-1.1,0.2
		c-0.4,0.1-0.7,0.2-0.9,0.4l-0.3,0.2v5.9c0.8,0.1,1.5,0.2,1.9,0.2c0.9,0,1.6-0.3,2-0.8c0.4-0.5,0.6-1.4,0.6-2.6
		c0-1.2-0.2-2.1-0.5-2.6S456.9,226.8,456.3,226.8z"/>
	<path class="st1" d="M467.7,233.4l0.5-0.1l0,1c-1.3,0.2-2.5,0.3-3.4,0.3c-1.3,0-2.1-0.4-2.7-1.1c-0.5-0.7-0.8-1.9-0.8-3.4
		c0-3.1,1.2-4.6,3.6-4.6c1.2,0,2,0.3,2.6,1c0.6,0.7,0.9,1.7,0.9,3.1l-0.1,1h-5.7c0,1,0.2,1.7,0.5,2.1s1,0.7,1.8,0.7
		C465.9,233.5,466.8,233.5,467.7,233.4z M467.2,229.7c0-1.1-0.2-1.8-0.5-2.3c-0.3-0.4-0.9-0.7-1.7-0.7c-0.8,0-1.4,0.2-1.7,0.7
		c-0.4,0.5-0.6,1.2-0.6,2.2H467.2z"/>
	<path class="st1" d="M470.5,234.5v-8.7h1.3v1.2c1-0.7,2.1-1.2,3.2-1.4v1.3c-0.5,0.1-1,0.2-1.5,0.4c-0.5,0.2-0.9,0.4-1.2,0.5
		l-0.4,0.2v6.4H470.5z"/>
</g>
<path class="st3" d="M806.4,110.6c-0.1,0-0.1,0.1-0.2,0.1c-3.8,0-6.8-3.1-6.8-6.8c0-0.6,0.1-1.2,0.2-1.8c-1.7-1.3-2.7-3.4-2.7-5.7
	c0-1.9,0.8-3.7,2-5.1c-0.1-0.3-0.1-0.7-0.1-1.1c0-2.3,1.2-4.3,3.1-5.4c0-0.1,0-0.1,0-0.2c0-2.6,1.6-4.8,3.9-5.8
	c0.6-2.8,3.1-4.8,6.1-4.8c2,0,3.8,1,5,2.5c1.1-1.5,2.9-2.5,5-2.5c3,0,5.4,2.1,6.1,4.8c2.3,0.9,3.9,3.2,3.9,5.8
	c0,0.1-0.1,0.1-0.1,0.2c1.9,1.1,3.2,3.1,3.2,5.4c0,0.4,0,0.8-0.1,1.1c1.2,1.4,2,3.2,2,5.1c0,2.3-1.1,4.4-2.7,5.7
	c0.1,0.6,0.2,1.2,0.2,1.8c0,3.8-3.1,6.8-6.8,6.8c-0.1,0-0.1-0.1-0.2-0.1c-1.1,1.9-3.1,3.2-5.4,3.2c-2,0-3.8-1-5-2.5
	c-1.1,1.5-2.9,2.5-5,2.5C809.4,113.8,807.4,112.5,806.4,110.6z M811.8,76.4c-1.9,0-3.5,1.5-3.7,3.4l-0.1,0.9l-0.9,0.2
	c-1.6,0.4-2.8,1.9-2.8,3.6c0,0.2,0,0.5,0.1,0.7l0.2,1l-1,0.4c-1.4,0.5-2.5,1.9-2.5,3.5c0,0.4,0.1,0.8,0.2,1.1l0.3,0.8l-0.6,0.6
	c-1,0.9-1.8,2.3-1.8,3.7c0,1.8,1,3.3,2.4,4.2l0.9,0.6l-0.4,1c-0.2,0.5-0.4,1.1-0.4,1.7c0,2.4,2,4.4,4.4,4.4c0.3,0,0.6,0,0.8-0.1
	l1-0.2l0.4,1c0.5,1.4,1.9,2.4,3.4,2.4c2.1,0,3.7-1.7,3.7-3.7v-10h-3.7c-0.5,0-1,0.4-1.1,0.9c1.1,0.5,1.8,1.6,1.8,2.8
	c0,1.7-1.3,3.1-3.1,3.1c-1.7,0-3.1-1.4-3.1-3.1c0-1.3,0.8-2.4,2-2.9c0.2-1.9,1.8-3.4,3.7-3.4h3.7v-8.7h-2c-0.5,1.1-1.6,1.9-2.9,1.9
	c-1.7,0-3.1-1.4-3.1-3.1s1.5-3.1,3.1-3.1c1.3,0,2.4,0.8,2.9,1.9h2v-3.7C815.4,78.2,813.8,76.5,811.8,76.4L811.8,76.4L811.8,76.4z
	 M818,101.3h4.6c0.5-1.1,1.6-1.9,2.8-1.9c1.7,0,3.1,1.4,3.1,3.1s-1.4,3.1-3.1,3.1c-1.3,0-2.4-0.8-2.8-1.9H818v3.7
	c0,2.1,1.7,3.7,3.7,3.7c1.6,0,3-1,3.5-2.4l0.4-1l1,0.2c0.2,0,0.5,0.1,0.7,0.1c2.4,0,4.4-1.9,4.4-4.4c0-0.6-0.1-1.2-0.3-1.7l-0.4-1
	l0.9-0.6c1.3-0.9,2.3-2.4,2.3-4.3c0-1.4-0.7-2.8-1.7-3.7l-0.6-0.6l0.3-0.8c0.1-0.3,0.2-0.7,0.2-1.2c0-1.5-1-2.9-2.4-3.4l-1-0.4
	l0.2-1c0-0.2,0.1-0.5,0.1-0.8c0-1.7-1.2-3.1-2.8-3.6l-0.9-0.2l-0.1-0.9c-0.2-1.9-1.8-3.4-3.7-3.4c-2.1,0-3.7,1.7-3.7,3.7v3.7h3.7
	c2.1,0,3.7,1.7,3.7,3.7v0.9c1.1,0.5,1.9,1.6,1.9,2.8c0,1.8-1.4,3.1-3.1,3.1s-3.1-1.3-3.1-3.1c0-1.2,0.8-2.3,1.9-2.8v-0.9
	c0-0.6-0.6-1.2-1.2-1.2H818L818,101.3L818,101.3z M810.5,86.4c0.7,0,1.2-0.6,1.2-1.2s-0.6-1.2-1.2-1.2s-1.2,0.6-1.2,1.2
	S809.8,86.4,810.5,86.4z M809.3,102.6c0.7,0,1.2-0.6,1.2-1.2s-0.6-1.2-1.2-1.2s-1.2,0.6-1.2,1.2S808.6,102.6,809.3,102.6z
	 M825.4,91.4c0-0.7-0.6-1.2-1.2-1.2s-1.2,0.6-1.2,1.2s0.6,1.2,1.2,1.2S825.4,92.1,825.4,91.4z M825.4,103.8c0.7,0,1.2-0.6,1.2-1.2
	s-0.6-1.2-1.2-1.2s-1.2,0.6-1.2,1.2C824.2,103.3,824.8,103.8,825.4,103.8z"/>
<path class="st3" d="M897.8,24.3L888,56.1c-0.3,0.9-1.2,1.3-2,1.1c-0.9-0.3-1.4-1.2-1.1-2l9.9-31.8c0.3-0.9,1.2-1.4,2-1.1
	C897.6,22.5,898.1,23.5,897.8,24.3L897.8,24.3z M904,30.3l8.8,8.2c0.3,0.3,0.5,0.8,0.5,1.1c0,0.5-0.2,0.9-0.5,1.3l-8.8,8.2
	c-0.7,0.6-1.7,0.6-2.3-0.1c-0.6-0.7-0.6-1.7,0.1-2.3l7.5-7.1l-7.5-7c-0.7-0.6-0.7-1.7-0.1-2.3C902.2,29.7,903.3,29.7,904,30.3
	L904,30.3z M880.9,32.7l-7.5,7l7.5,7.1c0.7,0.6,0.7,1.7,0.1,2.3s-1.7,0.7-2.3,0.1l-8.8-8.2c-0.3-0.4-0.5-0.8-0.5-1.3
	c0-0.4,0.2-0.8,0.5-1.1l8.8-8.2c0.7-0.6,1.7-0.6,2.3,0.1C881.6,31.1,881.6,32.1,880.9,32.7L880.9,32.7z"/>
<path class="st3" d="M981,87.8h-30.5c-1.5,0-2.7,1.2-2.7,2.7v15.9c0,4.4,3.6,8,8,8h15.9c4.4,0,8-3.6,8-8h1.3c5.1,0,9.3-4.2,9.3-9.3
	C990.3,92,986.1,87.8,981,87.8z M975.7,106.4c0,2.2-1.8,4-4,4h-15.9c-2.2,0-4-1.8-4-4V91.8h23.9L975.7,106.4L975.7,106.4z
	 M981,102.4h-1.3V91.8h1.3c2.9,0,5.3,2.4,5.3,5.3S983.9,102.4,981,102.4z M956.7,80.2c1,0.5,1.7,1.7,1.7,2.9c0,1.1,0.9,2,2,2
	s2-1,2-2c0-2.6-1.4-5-3.6-6.3c-1-0.6-1.7-1.7-1.7-2.9c0-1.1-0.9-2-2-2s-2,0.9-2,2C953.1,76.5,954.5,78.9,956.7,80.2z M966,80.2
	c1,0.5,1.7,1.7,1.7,2.9c0,1.1,0.9,2,2,2s2-1,2-2c0-2.6-1.4-5-3.6-6.3c-1-0.6-1.7-1.7-1.7-2.9c0-1.1-0.9-2-2-2s-2,0.9-2,2
	C962.4,76.5,963.8,78.9,966,80.2z"/>
<path class="st3" d="M807.3,161h-2.6c-3.1,0-5.6,2.5-5.6,5.7v6.2h-3.1c-0.8,0-1.5,0.7-1.5,1.5c0,0.9,0.7,1.6,1.5,1.6h3.1v10.3
	c0,1.4-1.1,2.6-2.6,2.6h-0.5c-0.8,0-1.5,0.7-1.5,1.5c0,0.9,0.7,1.5,1.5,1.5h0.5c3.1,0,5.6-2.5,5.6-5.7v-10.3h3.1
	c0.8,0,1.5-0.7,1.5-1.5c0-0.9-0.7-1.5-1.5-1.5h-3.1v-6.2c0-1.4,1.1-2.6,2.6-2.6h2.6c0.8,0,1.5-0.7,1.5-1.5
	C808.8,161.7,808.2,161,807.3,161z M814.4,169.8c-0.7-0.6-1.7-0.4-2.2,0.4c-2.2,3.4-3.4,7.3-3.4,11.4c0,4,1.2,8,3.4,11.4
	c0.5,0.8,9.5,0.9,10.2,0.4c0.6-0.5-7.2-1.4-7.6-2c-1.9-2.9-2.9-6.3-2.9-9.8c0-3.4,1-6.9,2.9-9.7
	C815.2,171.1,815.1,170.3,814.4,169.8z M832.1,170.2c-0.5-0.8-1.5-0.9-2.2-0.4c-0.6,0.5-0.8,1.4-0.4,2c1.9,2.9,2.9,6.3,2.9,9.8
	s-1,6.9-2.9,9.7c-0.4,0.7,7.7,1.6,8.4,2c0.7,0.6-6.3,0.4-5.8-0.4c2.2-3.3,3.4-7.3,3.4-11.4C835.4,177.5,834.2,173.6,832.1,170.2z
	 M826.5,177.1c-0.6-0.6-1.5-0.6-2,0l-2.4,2.4l-2.4-2.4c-0.6-0.6-1.5-0.6-2.1,0c-0.6,0.6-0.6,1.5,0,2.1l2.4,2.4l-2.4,2.4
	c-0.6,0.6-0.6,1.5,0,2.1s1.5,0.6,2.1,0l2.4-2.4l2.4,2.4c0.6,0.6,1.5,0.6,2,0c0.6-0.6,0.6-1.5,0-2.1l-2.3-2.4l2.3-2.4
	C827.2,178.6,827.2,177.7,826.5,177.1z"/>
<path class="st3" d="M982.7,190.2v-23.4c0-2-1.7-3.7-3.7-3.7h-24.7c-3.4,0-6.2,2.8-6.2,6.2v27.1c0,3.4,2.8,6.2,6.2,6.2h26.5
	c1,0,1.8-0.8,1.8-1.9s-0.8-1.9-1.8-1.9h-0.6v-5.2C981.7,193.2,982.7,191.8,982.7,190.2z M976.6,198.8h-22.2c-1.4,0-2.5-1.1-2.5-2.5
	s1.1-2.5,2.5-2.5h22.2V198.8z M979,190.2h-24.7c-0.9,0-1.7,0.2-2.5,0.5v-21.5c0-1.4,1.1-2.5,2.5-2.5H979V190.2z M959.9,175.4h13.6
	c1,0,1.8-0.8,1.8-1.9s-0.8-1.9-1.8-1.9h-13.6c-1,0-1.8,0.8-1.8,1.9S958.9,175.4,959.9,175.4z M959.9,181.6h13.6c1,0,1.8-0.8,1.8-1.9
	s-0.8-1.9-1.8-1.9h-13.6c-1,0-1.8,0.8-1.8,1.9S958.9,181.6,959.9,181.6z"/>
<path class="st3" d="M892.8,108.2l0.9,1l1-1c2.7-2.6,6.4-3.8,10-3.2c5.5,0.9,9.6,5.7,9.6,11.3v0.5c0,3.3-1.4,6.5-3.8,8.8L896,139
	c-0.6,0.6-1.4,0.9-2.2,0.9s-1.6-0.3-2.2-0.9l-14.5-13.5c-2.4-2.3-3.8-5.4-3.8-8.8v-0.5c0-5.6,4-10.4,9.6-11.3
	C886.4,104.4,890.2,105.6,892.8,108.2C892.7,108.2,892.8,108.2,892.8,108.2L892.8,108.2z M893.7,114.6l-3.6-3.8
	c-1.7-1.7-4.2-2.5-6.6-2.1c-3.7,0.6-6.3,3.8-6.3,7.5v0.5c0,2.3,0.9,4.4,2.6,6l14.1,13.1l14.1-13.1c1.7-1.5,2.6-3.7,2.6-6v-0.5
	c0-3.7-2.7-6.9-6.3-7.5c-2.4-0.4-4.9,0.4-6.6,2.1L893.7,114.6z"/>
<path class="st3" d="M889.9,218.3c-0.4-0.9-1.9-0.9-2.3,0l-4.3,9.9c-0.3,0.6,0,1.4,0.6,1.6c0.6,0.3,1.3,0,1.6-0.6l0.8-1.7h4.9
	l0.8,1.7c0.1,0.5,0.7,0.7,1.1,0.7c0.2,0,0.3,0,0.5-0.1c0.6-0.3,0.9-1,0.6-1.6L889.9,218.3z M887.4,224.9l1.3-3.1l1.3,3.1H887.4z
	 M898.6,217.5c-0.7,0-1.2,0.6-1.2,1.2v9.9c0,0.7,0.5,1.2,1.2,1.2c0.7,0,1.2-0.6,1.2-1.2v-9.9C899.9,218.1,899.3,217.5,898.6,217.5z
	 M911,224.9c0.7,0,1.2-0.6,1.2-1.2c0-0.7-0.5-1.2-1.2-1.2h-3.7v-4.9h3.7c0.7,0,1.2-0.6,1.2-1.2c0-0.7-0.5-1.2-1.2-1.2h-3.7v-1.2
	c0-2.7-2.2-4.9-4.9-4.9h-1.2v-3.7c0-0.7-0.6-1.2-1.2-1.2s-1.2,0.6-1.2,1.2v3.7h-4.9v-3.7c0-0.7-0.6-1.2-1.2-1.2s-1.2,0.6-1.2,1.2
	v3.7h-4.9v-3.7c0-0.7-0.6-1.2-1.2-1.2s-1.2,0.6-1.2,1.2v3.7h-1.2c-2.7,0-4.9,2.2-4.9,4.9v1.2h-3.7c-0.7,0-1.2,0.6-1.2,1.2
	c0,0.7,0.5,1.2,1.2,1.2h3.7v4.9h-3.7c-0.7,0-1.2,0.6-1.2,1.2c0,0.7,0.5,1.2,1.2,1.2h3.7v4.9h-3.7c-0.7,0-1.2,0.6-1.2,1.2
	s0.5,1.2,1.2,1.2h3.7v1.2c0,2.7,2.2,4.9,4.9,4.9h1.2v3.7c0,0.7,0.6,1.2,1.2,1.2s1.2-0.6,1.2-1.2v-3.7h4.9v3.7c0,0.7,0.5,1.2,1.2,1.2
	s1.2-0.6,1.2-1.2v-3.7h4.9v3.7c0,0.7,0.5,1.2,1.2,1.2c0.7,0,1.2-0.6,1.2-1.2v-3.7h1.2c2.7,0,4.9-2.2,4.9-4.9v-1.2h3.7
	c0.7,0,1.2-0.6,1.2-1.2c0-0.7-0.5-1.2-1.2-1.2h-3.7v-4.9H911z M904.8,233.6c0,1.4-1.1,2.5-2.5,2.5h-19.8c-1.4,0-2.5-1.1-2.5-2.5
	v-19.8c0-1.4,1.1-2.5,2.5-2.5h19.8c1.4,0,2.5,1.1,2.5,2.5V233.6z"/>
<path class="st3" d="M826.4,259.5c0,2.2-1.7,3.9-3.9,3.9s-3.9-1.7-3.9-3.9c0-2.1,1.7-3.9,3.9-3.9S826.4,257.4,826.4,259.5z
	 M822.6,261.2c0.9,0,1.7-0.7,1.7-1.7c0-0.9-0.7-1.7-1.7-1.7s-1.7,0.8-1.7,1.7C820.9,260.5,821.6,261.2,822.6,261.2z M821.2,281.4
	l-7,3.5c-0.3,0.2-0.8,0.1-1.1,0c-0.3-0.2-0.5-0.6-0.5-0.9v-8c0-1.7-0.7-3.4-1.9-4.6c-1.2-1.2-2.9-1.9-4.6-1.9h-8
	c-0.4,0-0.7-0.2-0.9-0.5s-0.2-0.7,0-1.1l3.5-7c0.8-1.5,2.3-2.5,4-2.5h6.7c5.5-9.1,14-9.4,19.2-8.4c0.8,0.1,1.4,0.8,1.6,1.6
	c1,5.2,0.6,13.7-8.5,19.1v6.8C823.7,279.1,822.7,280.7,821.2,281.4L821.2,281.4z M813.9,272.2c8.5-2.1,12.6-5.9,14.6-9.4
	c2-3.7,2-7.7,1.5-10.7c-3-0.5-7-0.5-10.7,1.5c-3.6,2-7.3,6.1-9.4,14.6c0.9,0.4,1.7,1,2.3,1.7C812.9,270.5,813.5,271.4,813.9,272.2z
	 M814.8,282.2l5.4-2.8c0.8-0.3,1.2-1.1,1.2-1.9v-5.5c-1.9,0.9-4.2,1.8-6.8,2.4c0.1,0.6,0.2,1.2,0.2,1.8L814.8,282.2L814.8,282.2z
	 M807.8,267.5c0.7-2.6,1.5-4.9,2.4-6.9h-5.5c-0.8,0-1.6,0.5-2,1.3l-2.7,5.4h6.2C806.6,267.3,807.2,267.4,807.8,267.5L807.8,267.5z
	 M808.6,282.2c-3.4,3.4-11.5,2.9-11.5,2.9s-0.5-8.1,2.9-11.5c2.4-2.4,6.2-2.4,8.6,0S811,279.8,808.6,282.2L808.6,282.2z M807,275.1
	c-1.6-1.5-4-1.5-5.5,0c-1.2,1.1-1.8,3.4-2.1,5.7c-0.1,0.7-0.1,1.4-0.2,2c0.6,0,1.3-0.1,2-0.1c2.4-0.3,4.6-1,5.7-2.1
	C808.5,279.1,808.5,276.6,807,275.1L807,275.1z"/>
<path class="st3" d="M970.6,271c0.2,0.2,0.5,0.3,0.8,0.3c0.3,0,0.5-0.1,0.8-0.3l4.3-4.3c0.4-0.4,0.4-1.1,0-1.5l-4.3-4.3
	c-0.4-0.4-1.1-0.4-1.5,0c-0.4,0.4-0.4,1.1,0,1.5l3.6,3.6l-3.6,3.6C970.2,269.9,970.2,270.6,970.6,271z M963.5,260.9
	c-0.4-0.4-1.1-0.4-1.5,0l-4.3,4.3c-0.4,0.4-0.4,1.1,0,1.5l4.3,4.3c0.2,0.2,0.5,0.3,0.8,0.3s0.5-0.1,0.8-0.3c0.4-0.4,0.4-1.1,0-1.5
	L960,266l3.6-3.6C964,262,964,261.3,963.5,260.9z M950.9,274.6c0.6,0,1.1-0.5,1.1-1.1v-16.2c0-1.2,1-2.2,2.2-2.2H980
	c1.2,0,2.2,1,2.2,2.2v16.2c0,0.6,0.5,1.1,1.1,1.1c0.6,0,1.1-0.5,1.1-1.1v-16.2c0-2.4-1.9-4.3-4.3-4.3h-25.9c-2.4,0-4.3,1.9-4.3,4.3
	v16.2C949.8,274.1,950.3,274.6,950.9,274.6z M987.6,276.8h-41c-0.6,0-1.1,0.5-1.1,1.1v1.1c0,2.4,1.9,4.3,4.3,4.3h34.5
	c2.4,0,4.3-1.9,4.3-4.3v-1.1C988.7,277.2,988.2,276.8,987.6,276.8z M984.4,281.1h-34.5c-1.2,0-2.2-1-2.2-2.2h38.9
	C986.5,280.1,985.5,281.1,984.4,281.1z"/>
</svg>
